<?xml version="1.0" encoding="UTF-8" standalone="no"?>
<!DOCTYPE svg PUBLIC "-//W3C//DTD SVG 1.1//EN"
 "http://www.w3.org/Graphics/SVG/1.1/DTD/svg11.dtd">
<!-- Generated by graphviz version 12.1.2 (20240928.0832)
 -->
<!-- Title: public.appointments Pages: 1 -->
<svg width="4111pt" height="2023pt"
 viewBox="0.00 0.00 4111.48 2023.20" xmlns="http://www.w3.org/2000/svg" xmlns:xlink="http://www.w3.org/1999/xlink">
<g id="graph0" class="graph" transform="scale(1 1) rotate(0) translate(4 2019.2)">
<title>public.appointments</title>
<polygon fill="white" stroke="none" points="-4,4 -4,-2019.2 4107.48,-2019.2 4107.48,4 -4,4"/>
<!-- public.appointments -->
<g id="node1" class="node">
<title>public.appointments</title>
<polygon fill="#efefef" stroke="none" points="2029.47,-1539 2029.47,-1585 3789.17,-1585 3789.17,-1539 2029.47,-1539"/>
<polygon fill="none" stroke="black" points="2029.47,-1539 2029.47,-1585 3789.17,-1585 3789.17,-1539 2029.47,-1539"/>
<text text-anchor="start" x="2773.84" y="-1562.8" font-family="Arial Bold" font-size="18.00">public.appointments</text>
<text text-anchor="start" x="2920.31" y="-1562.8" font-family="Arial" font-size="14.00">    </text>
<text text-anchor="start" x="2951.43" y="-1562.8" font-family="Arial" font-size="14.00" fill="#666666">[BASE TABLE]</text>
<text text-anchor="start" x="2036.47" y="-1548.4" font-family="Arial" font-size="14.00" fill="#333333">Never deleted — status lifecycle only (booked→confirmed→checked_in→in_progress→completed | cancelled | no_show). Double&#45;booking of staff or rooms is impossible: gist exclusion constraints on the blocked window, which ignore cancelled/no_show rows so slots free themselves.</text>
<polygon fill="none" stroke="black" points="2029.47,-1508.2 2029.47,-1539 3789.17,-1539 3789.17,-1508.2 2029.47,-1508.2"/>
<text text-anchor="start" x="2036.47" y="-1520.4" font-family="Arial" font-size="14.00">id </text>
<text text-anchor="start" x="2051.25" y="-1520.4" font-family="Arial" font-size="14.00" fill="#666666">[uuid]</text>
<polygon fill="none" stroke="black" points="2029.47,-1477.4 2029.47,-1508.2 3789.17,-1508.2 3789.17,-1477.4 2029.47,-1477.4"/>
<text text-anchor="start" x="2036.47" y="-1489.6" font-family="Arial" font-size="14.00">organization_id </text>
<text text-anchor="start" x="2135.31" y="-1489.6" font-family="Arial" font-size="14.00" fill="#666666">[uuid]</text>
<polygon fill="none" stroke="black" points="2029.47,-1446.6 2029.47,-1477.4 3789.17,-1477.4 3789.17,-1446.6 2029.47,-1446.6"/>
<text text-anchor="start" x="2036.47" y="-1458.8" font-family="Arial" font-size="14.00">location_id </text>
<text text-anchor="start" x="2107.29" y="-1458.8" font-family="Arial" font-size="14.00" fill="#666666">[uuid]</text>
<polygon fill="none" stroke="black" points="2029.47,-1415.8 2029.47,-1446.6 3789.17,-1446.6 3789.17,-1415.8 2029.47,-1415.8"/>
<text text-anchor="start" x="2036.47" y="-1428" font-family="Arial" font-size="14.00">client_id </text>
<text text-anchor="start" x="2091.72" y="-1428" font-family="Arial" font-size="14.00" fill="#666666">[uuid]</text>
<polygon fill="none" stroke="black" points="2029.47,-1385 2029.47,-1415.8 3789.17,-1415.8 3789.17,-1385 2029.47,-1385"/>
<text text-anchor="start" x="2036.47" y="-1397.2" font-family="Arial" font-size="14.00">staff_id </text>
<text text-anchor="start" x="2085.49" y="-1397.2" font-family="Arial" font-size="14.00" fill="#666666">[uuid]</text>
<polygon fill="none" stroke="black" points="2029.47,-1354.2 2029.47,-1385 3789.17,-1385 3789.17,-1354.2 2029.47,-1354.2"/>
<text text-anchor="start" x="2036.47" y="-1366.4" font-family="Arial" font-size="14.00">resource_id </text>
<text text-anchor="start" x="2113.51" y="-1366.4" font-family="Arial" font-size="14.00" fill="#666666">[uuid]</text>
<polygon fill="none" stroke="black" points="2029.47,-1323.4 2029.47,-1354.2 3789.17,-1354.2 3789.17,-1323.4 2029.47,-1323.4"/>
<text text-anchor="start" x="2036.47" y="-1335.6" font-family="Arial" font-size="14.00">blocked_from </text>
<text text-anchor="start" x="2124.4" y="-1335.6" font-family="Arial" font-size="14.00" fill="#666666">[timestamp with time zone]</text>
<text text-anchor="start" x="2290.12" y="-1335.6" font-family="Arial" font-size="14.00"> Start of the FULL blocked window including buffer_before — what all conflict checks use.</text>
<polygon fill="none" stroke="black" points="2029.47,-1292.6 2029.47,-1323.4 3789.17,-1323.4 3789.17,-1292.6 2029.47,-1292.6"/>
<text text-anchor="start" x="2036.47" y="-1304.8" font-family="Arial" font-size="14.00">blocked_until </text>
<text text-anchor="start" x="2122.08" y="-1304.8" font-family="Arial" font-size="14.00" fill="#666666">[timestamp with time zone]</text>
<polygon fill="none" stroke="black" points="2029.47,-1261.8 2029.47,-1292.6 3789.17,-1292.6 3789.17,-1261.8 2029.47,-1261.8"/>
<text text-anchor="start" x="2036.47" y="-1274" font-family="Arial" font-size="14.00">starts_at </text>
<text text-anchor="start" x="2094.04" y="-1274" font-family="Arial" font-size="14.00" fill="#666666">[timestamp with time zone]</text>
<text text-anchor="start" x="2259.77" y="-1274" font-family="Arial" font-size="14.00"> Client&#45;facing start (inside the blocked window).</text>
<polygon fill="none" stroke="black" points="2029.47,-1231 2029.47,-1261.8 3789.17,-1261.8 3789.17,-1231 2029.47,-1231"/>
<text text-anchor="start" x="2036.47" y="-1243.2" font-family="Arial" font-size="14.00">ends_at </text>
<text text-anchor="start" x="2090.18" y="-1243.2" font-family="Arial" font-size="14.00" fill="#666666">[timestamp with time zone]</text>
<polygon fill="none" stroke="black" points="2029.47,-1200.2 2029.47,-1231 3789.17,-1231 3789.17,-1200.2 2029.47,-1200.2"/>
<text text-anchor="start" x="2036.47" y="-1212.4" font-family="Arial" font-size="14.00">status </text>
<text text-anchor="start" x="2077.71" y="-1212.4" font-family="Arial" font-size="14.00" fill="#666666">[text]</text>
<polygon fill="none" stroke="black" points="2029.47,-1169.4 2029.47,-1200.2 3789.17,-1200.2 3789.17,-1169.4 2029.47,-1169.4"/>
<text text-anchor="start" x="2036.47" y="-1181.6" font-family="Arial" font-size="14.00">cancelled_at </text>
<text text-anchor="start" x="2118.97" y="-1181.6" font-family="Arial" font-size="14.00" fill="#666666">[timestamp with time zone]</text>
<polygon fill="none" stroke="black" points="2029.47,-1138.6 2029.47,-1169.4 3789.17,-1169.4 3789.17,-1138.6 2029.47,-1138.6"/>
<text text-anchor="start" x="2036.47" y="-1150.8" font-family="Arial" font-size="14.00">cancel_reason </text>
<text text-anchor="start" x="2131.42" y="-1150.8" font-family="Arial" font-size="14.00" fill="#666666">[text]</text>
<polygon fill="none" stroke="black" points="2029.47,-1107.8 2029.47,-1138.6 3789.17,-1138.6 3789.17,-1107.8 2029.47,-1107.8"/>
<text text-anchor="start" x="2036.47" y="-1120" font-family="Arial" font-size="14.00">cancelled_by </text>
<text text-anchor="start" x="2122.08" y="-1120" font-family="Arial" font-size="14.00" fill="#666666">[uuid]</text>
<polygon fill="none" stroke="black" points="2029.47,-1077 2029.47,-1107.8 3789.17,-1107.8 3789.17,-1077 2029.47,-1077"/>
<text text-anchor="start" x="2036.47" y="-1089.2" font-family="Arial" font-size="14.00">booked_by </text>
<text text-anchor="start" x="2108.86" y="-1089.2" font-family="Arial" font-size="14.00" fill="#666666">[uuid]</text>
<polygon fill="none" stroke="black" points="2029.47,-1046.2 2029.47,-1077 3789.17,-1077 3789.17,-1046.2 2029.47,-1046.2"/>
<text text-anchor="start" x="2036.47" y="-1058.4" font-family="Arial" font-size="14.00">notes </text>
<text text-anchor="start" x="2074.6" y="-1058.4" font-family="Arial" font-size="14.00" fill="#666666">[text]</text>
<polygon fill="none" stroke="black" points="2029.47,-1015.4 2029.47,-1046.2 3789.17,-1046.2 3789.17,-1015.4 2029.47,-1015.4"/>
<text text-anchor="start" x="2036.47" y="-1027.6" font-family="Arial" font-size="14.00">created_at </text>
<text text-anchor="start" x="2106.51" y="-1027.6" font-family="Arial" font-size="14.00" fill="#666666">[timestamp with time zone]</text>
<polygon fill="none" stroke="black" points="2029.47,-984.6 2029.47,-1015.4 3789.17,-1015.4 3789.17,-984.6 2029.47,-984.6"/>
<text text-anchor="start" x="2036.47" y="-996.8" font-family="Arial" font-size="14.00">updated_at </text>
<text text-anchor="start" x="2110.42" y="-996.8" font-family="Arial" font-size="14.00" fill="#666666">[timestamp with time zone]</text>
<polygon fill="none" stroke="black" stroke-width="3" points="2027.97,-983.1 2027.97,-1586.5 3790.67,-1586.5 3790.67,-983.1 2027.97,-983.1"/>
</g>
<!-- public.organizations -->
<g id="node3" class="node">
<title>public.organizations</title>
<polygon fill="#efefef" stroke="none" points="43.2,-505.2 43.2,-551.2 677.44,-551.2 677.44,-505.2 43.2,-505.2"/>
<polygon fill="none" stroke="black" points="43.2,-505.2 43.2,-551.2 677.44,-551.2 677.44,-505.2 43.2,-505.2"/>
<text text-anchor="start" x="224.84" y="-529" font-family="Arial Bold" font-size="18.00">public.organizations</text>
<text text-anchor="start" x="371.3" y="-529" font-family="Arial" font-size="14.00">    </text>
<text text-anchor="start" x="402.42" y="-529" font-family="Arial" font-size="14.00" fill="#666666">[BASE TABLE]</text>
<text text-anchor="start" x="50.2" y="-514.6" font-family="Arial" font-size="14.00" fill="#333333">Tenant root. Single row today; every domain table hangs off organization_id for future multi&#45;tenancy.</text>
<polygon fill="none" stroke="black" points="43.2,-474.4 43.2,-505.2 677.44,-505.2 677.44,-474.4 43.2,-474.4"/>
<text text-anchor="start" x="50.2" y="-486.6" font-family="Arial" font-size="14.00">id </text>
<text text-anchor="start" x="64.99" y="-486.6" font-family="Arial" font-size="14.00" fill="#666666">[uuid]</text>
<polygon fill="none" stroke="black" points="43.2,-443.6 43.2,-474.4 677.44,-474.4 677.44,-443.6 43.2,-443.6"/>
<text text-anchor="start" x="50.2" y="-455.8" font-family="Arial" font-size="14.00">name </text>
<text text-anchor="start" x="89.11" y="-455.8" font-family="Arial" font-size="14.00" fill="#666666">[text]</text>
<polygon fill="none" stroke="black" points="43.2,-412.8 43.2,-443.6 677.44,-443.6 677.44,-412.8 43.2,-412.8"/>
<text text-anchor="start" x="50.2" y="-425" font-family="Arial" font-size="14.00">timezone </text>
<text text-anchor="start" x="110.9" y="-425" font-family="Arial" font-size="14.00" fill="#666666">[text]</text>
<polygon fill="none" stroke="black" points="43.2,-382 43.2,-412.8 677.44,-412.8 677.44,-382 43.2,-382"/>
<text text-anchor="start" x="50.2" y="-394.2" font-family="Arial" font-size="14.00">branding </text>
<text text-anchor="start" x="108.58" y="-394.2" font-family="Arial" font-size="14.00" fill="#666666">[jsonb]</text>
<polygon fill="none" stroke="black" points="43.2,-351.2 43.2,-382 677.44,-382 677.44,-351.2 43.2,-351.2"/>
<text text-anchor="start" x="50.2" y="-363.4" font-family="Arial" font-size="14.00">created_at </text>
<text text-anchor="start" x="120.25" y="-363.4" font-family="Arial" font-size="14.00" fill="#666666">[timestamp with time zone]</text>
</g>
<!-- public.appointments&#45;&gt;public.organizations -->
<g id="edge2" class="edge">
<title>public.appointments:organization_id&#45;&gt;public.organizations:id</title>
<path fill="none" stroke="black" d="M2018.28,-1492.79C1391.13,-1491.94 1102.73,-1410.83 729.32,-902.4 674.63,-827.94 770.82,-489.8 678.44,-489.8"/>
<polygon fill="black" stroke="black" points="2018.13,-1492.79 2028.13,-1497.3 2023.47,-1492.8 2027.8,-1492.8 2027.8,-1492.8 2027.8,-1492.8 2023.47,-1492.8 2028.13,-1488.3 2018.13,-1492.79"/>
<text text-anchor="start" x="1728.03" y="-1502.8" font-family="Arial" font-size="10.00">FOREIGN KEY (organization_id) REFERENCES organizations(id)</text>
</g>
<!-- public.locations -->
<g id="node4" class="node">
<title>public.locations</title>
<polygon fill="#efefef" stroke="none" points="781.84,-541.2 781.84,-576.8 1034.8,-576.8 1034.8,-541.2 781.84,-541.2"/>
<polygon fill="none" stroke="black" points="781.84,-541.2 781.84,-576.8 1034.8,-576.8 1034.8,-541.2 781.84,-541.2"/>
<text text-anchor="start" x="788.84" y="-554.6" font-family="Arial Bold" font-size="18.00">public.locations</text>
<text text-anchor="start" x="903.31" y="-554.6" font-family="Arial" font-size="14.00">    </text>
<text text-anchor="start" x="934.43" y="-554.6" font-family="Arial" font-size="14.00" fill="#666666">[BASE TABLE]</text>
<polygon fill="none" stroke="black" points="781.84,-510.4 781.84,-541.2 1034.8,-541.2 1034.8,-510.4 781.84,-510.4"/>
<text text-anchor="start" x="788.84" y="-522.6" font-family="Arial" font-size="14.00">id </text>
<text text-anchor="start" x="803.62" y="-522.6" font-family="Arial" font-size="14.00" fill="#666666">[uuid]</text>
<polygon fill="none" stroke="black" points="781.84,-479.6 781.84,-510.4 1034.8,-510.4 1034.8,-479.6 781.84,-479.6"/>
<text text-anchor="start" x="788.84" y="-491.8" font-family="Arial" font-size="14.00">organization_id </text>
<text text-anchor="start" x="887.68" y="-491.8" font-family="Arial" font-size="14.00" fill="#666666">[uuid]</text>
<polygon fill="none" stroke="black" points="781.84,-448.8 781.84,-479.6 1034.8,-479.6 1034.8,-448.8 781.84,-448.8"/>
<text text-anchor="start" x="788.84" y="-461" font-family="Arial" font-size="14.00">name </text>
<text text-anchor="start" x="827.75" y="-461" font-family="Arial" font-size="14.00" fill="#666666">[text]</text>
<polygon fill="none" stroke="black" points="781.84,-418 781.84,-448.8 1034.8,-448.8 1034.8,-418 781.84,-418"/>
<text text-anchor="start" x="788.84" y="-430.2" font-family="Arial" font-size="14.00">timezone </text>
<text text-anchor="start" x="849.53" y="-430.2" font-family="Arial" font-size="14.00" fill="#666666">[text]</text>
<polygon fill="none" stroke="black" points="781.84,-387.2 781.84,-418 1034.8,-418 1034.8,-387.2 781.84,-387.2"/>
<text text-anchor="start" x="788.84" y="-399.4" font-family="Arial" font-size="14.00">business_hours </text>
<text text-anchor="start" x="890.79" y="-399.4" font-family="Arial" font-size="14.00" fill="#666666">[jsonb]</text>
<polygon fill="none" stroke="black" points="781.84,-356.4 781.84,-387.2 1034.8,-387.2 1034.8,-356.4 781.84,-356.4"/>
<text text-anchor="start" x="788.84" y="-368.6" font-family="Arial" font-size="14.00">active </text>
<text text-anchor="start" x="829.3" y="-368.6" font-family="Arial" font-size="14.00" fill="#666666">[boolean]</text>
<polygon fill="none" stroke="black" points="781.84,-325.6 781.84,-356.4 1034.8,-356.4 1034.8,-325.6 781.84,-325.6"/>
<text text-anchor="start" x="788.84" y="-337.8" font-family="Arial" font-size="14.00">created_at </text>
<text text-anchor="start" x="858.88" y="-337.8" font-family="Arial" font-size="14.00" fill="#666666">[timestamp with time zone]</text>
</g>
<!-- public.appointments&#45;&gt;public.locations -->
<g id="edge3" class="edge">
<title>public.appointments:location_id&#45;&gt;public.locations:id</title>
<path fill="none" stroke="black" d="M2018.17,-1461.98C1538.79,-1459.82 1352.98,-1305.81 1086.32,-902.4 1039.76,-831.96 1120.24,-525.8 1035.8,-525.8"/>
<polygon fill="black" stroke="black" points="2018.13,-1461.98 2028.12,-1466.5 2023.47,-1461.99 2027.8,-1462 2027.8,-1462 2027.8,-1462 2023.47,-1461.99 2028.14,-1457.5 2018.13,-1461.98"/>
<text text-anchor="start" x="1768.06" y="-1472" font-family="Arial" font-size="10.00">FOREIGN KEY (location_id) REFERENCES locations(id)</text>
</g>
<!-- public.clients -->
<g id="node5" class="node">
<title>public.clients</title>
<polygon fill="#efefef" stroke="none" points="1138.99,-813.2 1138.99,-859.2 2287.65,-859.2 2287.65,-813.2 1138.99,-813.2"/>
<polygon fill="none" stroke="black" points="1138.99,-813.2 1138.99,-859.2 2287.65,-859.2 2287.65,-813.2 1138.99,-813.2"/>
<text text-anchor="start" x="1602.84" y="-837" font-family="Arial Bold" font-size="18.00">public.clients</text>
<text text-anchor="start" x="1699.31" y="-837" font-family="Arial" font-size="14.00">    </text>
<text text-anchor="start" x="1730.43" y="-837" font-family="Arial" font-size="14.00" fill="#666666">[BASE TABLE]</text>
<text text-anchor="start" x="1145.99" y="-822.6" font-family="Arial" font-size="14.00" fill="#333333">Spa clients (no auth accounts). no_show_count is maintained by trigger from appointment status changes. flags is an extensible jsonb for operational booleans (requires_card_on_file).</text>
<polygon fill="none" stroke="black" points="1138.99,-782.4 1138.99,-813.2 2287.65,-813.2 2287.65,-782.4 1138.99,-782.4"/>
<text text-anchor="start" x="1145.99" y="-794.6" font-family="Arial" font-size="14.00">id </text>
<text text-anchor="start" x="1160.77" y="-794.6" font-family="Arial" font-size="14.00" fill="#666666">[uuid]</text>
<polygon fill="none" stroke="black" points="1138.99,-751.6 1138.99,-782.4 2287.65,-782.4 2287.65,-751.6 1138.99,-751.6"/>
<text text-anchor="start" x="1145.99" y="-763.8" font-family="Arial" font-size="14.00">organization_id </text>
<text text-anchor="start" x="1244.84" y="-763.8" font-family="Arial" font-size="14.00" fill="#666666">[uuid]</text>
<polygon fill="none" stroke="black" points="1138.99,-720.8 1138.99,-751.6 2287.65,-751.6 2287.65,-720.8 1138.99,-720.8"/>
<text text-anchor="start" x="1145.99" y="-733" font-family="Arial" font-size="14.00">first_name </text>
<text text-anchor="start" x="1215.24" y="-733" font-family="Arial" font-size="14.00" fill="#666666">[text]</text>
<polygon fill="none" stroke="black" points="1138.99,-690 1138.99,-720.8 2287.65,-720.8 2287.65,-690 1138.99,-690"/>
<text text-anchor="start" x="1145.99" y="-702.2" font-family="Arial" font-size="14.00">last_name </text>
<text text-anchor="start" x="1214.47" y="-702.2" font-family="Arial" font-size="14.00" fill="#666666">[text]</text>
<polygon fill="none" stroke="black" points="1138.99,-659.2 1138.99,-690 2287.65,-690 2287.65,-659.2 1138.99,-659.2"/>
<text text-anchor="start" x="1145.99" y="-671.4" font-family="Arial" font-size="14.00">email </text>
<text text-anchor="start" x="1183.33" y="-671.4" font-family="Arial" font-size="14.00" fill="#666666">[text]</text>
<polygon fill="none" stroke="black" points="1138.99,-628.4 1138.99,-659.2 2287.65,-659.2 2287.65,-628.4 1138.99,-628.4"/>
<text text-anchor="start" x="1145.99" y="-640.6" font-family="Arial" font-size="14.00">phone </text>
<text text-anchor="start" x="1188.81" y="-640.6" font-family="Arial" font-size="14.00" fill="#666666">[text]</text>
<polygon fill="none" stroke="black" points="1138.99,-597.6 1138.99,-628.4 2287.65,-628.4 2287.65,-597.6 1138.99,-597.6"/>
<text text-anchor="start" x="1145.99" y="-609.8" font-family="Arial" font-size="14.00">date_of_birth </text>
<text text-anchor="start" x="1231.61" y="-609.8" font-family="Arial" font-size="14.00" fill="#666666">[date]</text>
<polygon fill="none" stroke="black" points="1138.99,-566.8 1138.99,-597.6 2287.65,-597.6 2287.65,-566.8 1138.99,-566.8"/>
<text text-anchor="start" x="1145.99" y="-579" font-family="Arial" font-size="14.00">referral_source </text>
<text text-anchor="start" x="1244.03" y="-579" font-family="Arial" font-size="14.00" fill="#666666">[text]</text>
<polygon fill="none" stroke="black" points="1138.99,-536 1138.99,-566.8 2287.65,-566.8 2287.65,-536 1138.99,-536"/>
<text text-anchor="start" x="1145.99" y="-548.2" font-family="Arial" font-size="14.00">no_show_count </text>
<text text-anchor="start" x="1247.95" y="-548.2" font-family="Arial" font-size="14.00" fill="#666666">[integer]</text>
<polygon fill="none" stroke="black" points="1138.99,-505.2 1138.99,-536 2287.65,-536 2287.65,-505.2 1138.99,-505.2"/>
<text text-anchor="start" x="1145.99" y="-517.4" font-family="Arial" font-size="14.00">flags </text>
<text text-anchor="start" x="1179.45" y="-517.4" font-family="Arial" font-size="14.00" fill="#666666">[jsonb]</text>
<text text-anchor="start" x="1220.7" y="-517.4" font-family="Arial" font-size="14.00"> Operational booleans, extendable without migrations. Known keys: requires_card_on_file</text>
<polygon fill="none" stroke="black" points="1138.99,-474.4 1138.99,-505.2 2287.65,-505.2 2287.65,-474.4 1138.99,-474.4"/>
<text text-anchor="start" x="1145.99" y="-486.6" font-family="Arial" font-size="14.00">active </text>
<text text-anchor="start" x="1186.45" y="-486.6" font-family="Arial" font-size="14.00" fill="#666666">[boolean]</text>
<polygon fill="none" stroke="black" points="1138.99,-443.6 1138.99,-474.4 2287.65,-474.4 2287.65,-443.6 1138.99,-443.6"/>
<text text-anchor="start" x="1145.99" y="-455.8" font-family="Arial" font-size="14.00">created_at </text>
<text text-anchor="start" x="1216.04" y="-455.8" font-family="Arial" font-size="14.00" fill="#666666">[timestamp with time zone]</text>
<polygon fill="none" stroke="black" points="1138.99,-412.8 1138.99,-443.6 2287.65,-443.6 2287.65,-412.8 1138.99,-412.8"/>
<text text-anchor="start" x="1145.99" y="-425" font-family="Arial" font-size="14.00">updated_at </text>
<text text-anchor="start" x="1219.95" y="-425" font-family="Arial" font-size="14.00" fill="#666666">[timestamp with time zone]</text>
<polygon fill="none" stroke="black" points="1138.99,-382 1138.99,-412.8 2287.65,-412.8 2287.65,-382 1138.99,-382"/>
<text text-anchor="start" x="1145.99" y="-394.2" font-family="Arial" font-size="14.00">pronouns </text>
<text text-anchor="start" x="1208.26" y="-394.2" font-family="Arial" font-size="14.00" fill="#666666">[text]</text>
<polygon fill="none" stroke="black" points="1138.99,-351.2 1138.99,-382 2287.65,-382 2287.65,-351.2 1138.99,-351.2"/>
<text text-anchor="start" x="1145.99" y="-363.4" font-family="Arial" font-size="14.00">address_line1 </text>
<text text-anchor="start" x="1237.05" y="-363.4" font-family="Arial" font-size="14.00" fill="#666666">[text]</text>
<polygon fill="none" stroke="black" points="1138.99,-320.4 1138.99,-351.2 2287.65,-351.2 2287.65,-320.4 1138.99,-320.4"/>
<text text-anchor="start" x="1145.99" y="-332.6" font-family="Arial" font-size="14.00">address_line2 </text>
<text text-anchor="start" x="1237.05" y="-332.6" font-family="Arial" font-size="14.00" fill="#666666">[text]</text>
<polygon fill="none" stroke="black" points="1138.99,-289.6 1138.99,-320.4 2287.65,-320.4 2287.65,-289.6 1138.99,-289.6"/>
<text text-anchor="start" x="1145.99" y="-301.8" font-family="Arial" font-size="14.00">city </text>
<text text-anchor="start" x="1170.88" y="-301.8" font-family="Arial" font-size="14.00" fill="#666666">[text]</text>
<polygon fill="none" stroke="black" points="1138.99,-258.8 1138.99,-289.6 2287.65,-289.6 2287.65,-258.8 1138.99,-258.8"/>
<text text-anchor="start" x="1145.99" y="-271" font-family="Arial" font-size="14.00">state </text>
<text text-anchor="start" x="1180.23" y="-271" font-family="Arial" font-size="14.00" fill="#666666">[text]</text>
<polygon fill="none" stroke="black" points="1138.99,-228 1138.99,-258.8 2287.65,-258.8 2287.65,-228 1138.99,-228"/>
<text text-anchor="start" x="1145.99" y="-240.2" font-family="Arial" font-size="14.00">postal_code </text>
<text text-anchor="start" x="1225.38" y="-240.2" font-family="Arial" font-size="14.00" fill="#666666">[text]</text>
<polygon fill="none" stroke="black" points="1138.99,-197.2 1138.99,-228 2287.65,-228 2287.65,-197.2 1138.99,-197.2"/>
<text text-anchor="start" x="1145.99" y="-209.4" font-family="Arial" font-size="14.00">emergency_contact_name </text>
<text text-anchor="start" x="1314.86" y="-209.4" font-family="Arial" font-size="14.00" fill="#666666">[text]</text>
<polygon fill="none" stroke="black" points="1138.99,-166.4 1138.99,-197.2 2287.65,-197.2 2287.65,-166.4 1138.99,-166.4"/>
<text text-anchor="start" x="1145.99" y="-178.6" font-family="Arial" font-size="14.00">emergency_contact_phone </text>
<text text-anchor="start" x="1318.77" y="-178.6" font-family="Arial" font-size="14.00" fill="#666666">[text]</text>
<polygon fill="none" stroke="black" points="1138.99,-135.6 1138.99,-166.4 2287.65,-166.4 2287.65,-135.6 1138.99,-135.6"/>
<text text-anchor="start" x="1145.99" y="-147.8" font-family="Arial" font-size="14.00">preferred_contact_method </text>
<text text-anchor="start" x="1314.09" y="-147.8" font-family="Arial" font-size="14.00" fill="#666666">[text]</text>
<polygon fill="none" stroke="black" points="1138.99,-104.8 1138.99,-135.6 2287.65,-135.6 2287.65,-104.8 1138.99,-104.8"/>
<text text-anchor="start" x="1145.99" y="-117" font-family="Arial" font-size="14.00">marketing_opt_in </text>
<text text-anchor="start" x="1257.28" y="-117" font-family="Arial" font-size="14.00" fill="#666666">[boolean]</text>
<polygon fill="none" stroke="black" points="1138.99,-74 1138.99,-104.8 2287.65,-104.8 2287.65,-74 1138.99,-74"/>
<text text-anchor="start" x="1145.99" y="-86.2" font-family="Arial" font-size="14.00">marketing_opt_in_at </text>
<text text-anchor="start" x="1276.74" y="-86.2" font-family="Arial" font-size="14.00" fill="#666666">[timestamp with time zone]</text>
<polygon fill="none" stroke="black" points="1138.99,-43.2 1138.99,-74 2287.65,-74 2287.65,-43.2 1138.99,-43.2"/>
<text text-anchor="start" x="1145.99" y="-55.4" font-family="Arial" font-size="14.00">preferred_staff_id </text>
<text text-anchor="start" x="1259.61" y="-55.4" font-family="Arial" font-size="14.00" fill="#666666">[uuid]</text>
</g>
<!-- public.appointments&#45;&gt;public.clients -->
<g id="edge4" class="edge">
<title>public.appointments:client_id&#45;&gt;public.clients:id</title>
<path fill="none" stroke="black" d="M2018.11,-1430.95C1811.91,-1420.68 1887.84,-1100.81 2029.47,-938.4 2105.61,-851.08 2211.18,-989.43 2287.65,-902.4 2318.34,-867.48 2335.14,-797.8 2288.65,-797.8"/>
<polygon fill="black" stroke="black" points="2018.13,-1430.95 2028.02,-1435.69 2023.47,-1431.08 2027.8,-1431.18 2027.8,-1431.18 2027.8,-1431.18 2023.47,-1431.08 2028.24,-1426.69 2018.13,-1430.95"/>
<text text-anchor="start" x="1790.3" y="-1441.2" font-family="Arial" font-size="10.00">FOREIGN KEY (client_id) REFERENCES clients(id)</text>
</g>
<!-- public.staff -->
<g id="node6" class="node">
<title>public.staff</title>
<polygon fill="#efefef" stroke="none" points="2392.37,-751.6 2392.37,-797.6 3426.27,-797.6 3426.27,-751.6 2392.37,-751.6"/>
<polygon fill="none" stroke="black" points="2392.37,-751.6 2392.37,-797.6 3426.27,-797.6 3426.27,-751.6 2392.37,-751.6"/>
<text text-anchor="start" x="2806.34" y="-775.4" font-family="Arial Bold" font-size="18.00">public.staff</text>
<text text-anchor="start" x="2887.81" y="-775.4" font-family="Arial" font-size="14.00">    </text>
<text text-anchor="start" x="2918.93" y="-775.4" font-family="Arial" font-size="14.00" fill="#666666">[BASE TABLE]</text>
<text text-anchor="start" x="2399.37" y="-761" font-family="Arial" font-size="14.00" fill="#333333">Employees. Linked 1:1 to auth.users via user_id. Deactivated (active=false), never deleted. Self&#45;editable personal fields are guarded by trg_guard_staff_self_update.</text>
<polygon fill="none" stroke="black" points="2392.37,-720.8 2392.37,-751.6 3426.27,-751.6 3426.27,-720.8 2392.37,-720.8"/>
<text text-anchor="start" x="2399.37" y="-733" font-family="Arial" font-size="14.00">id </text>
<text text-anchor="start" x="2414.16" y="-733" font-family="Arial" font-size="14.00" fill="#666666">[uuid]</text>
<polygon fill="none" stroke="black" points="2392.37,-690 2392.37,-720.8 3426.27,-720.8 3426.27,-690 2392.37,-690"/>
<text text-anchor="start" x="2399.37" y="-702.2" font-family="Arial" font-size="14.00">organization_id </text>
<text text-anchor="start" x="2498.22" y="-702.2" font-family="Arial" font-size="14.00" fill="#666666">[uuid]</text>
<polygon fill="none" stroke="black" points="2392.37,-659.2 2392.37,-690 3426.27,-690 3426.27,-659.2 2392.37,-659.2"/>
<text text-anchor="start" x="2399.37" y="-671.4" font-family="Arial" font-size="14.00">user_id </text>
<text text-anchor="start" x="2449.18" y="-671.4" font-family="Arial" font-size="14.00" fill="#666666">[uuid]</text>
<polygon fill="none" stroke="black" points="2392.37,-628.4 2392.37,-659.2 3426.27,-659.2 3426.27,-628.4 2392.37,-628.4"/>
<text text-anchor="start" x="2399.37" y="-640.6" font-family="Arial" font-size="14.00">display_name </text>
<text text-anchor="start" x="2489.65" y="-640.6" font-family="Arial" font-size="14.00" fill="#666666">[text]</text>
<polygon fill="none" stroke="black" points="2392.37,-597.6 2392.37,-628.4 3426.27,-628.4 3426.27,-597.6 2392.37,-597.6"/>
<text text-anchor="start" x="2399.37" y="-609.8" font-family="Arial" font-size="14.00">email </text>
<text text-anchor="start" x="2436.72" y="-609.8" font-family="Arial" font-size="14.00" fill="#666666">[text]</text>
<polygon fill="none" stroke="black" points="2392.37,-566.8 2392.37,-597.6 3426.27,-597.6 3426.27,-566.8 2392.37,-566.8"/>
<text text-anchor="start" x="2399.37" y="-579" font-family="Arial" font-size="14.00">title </text>
<text text-anchor="start" x="2425.05" y="-579" font-family="Arial" font-size="14.00" fill="#666666">[text]</text>
<polygon fill="none" stroke="black" points="2392.37,-536 2392.37,-566.8 3426.27,-566.8 3426.27,-536 2392.37,-536"/>
<text text-anchor="start" x="2399.37" y="-548.2" font-family="Arial" font-size="14.00">color </text>
<text text-anchor="start" x="2433.61" y="-548.2" font-family="Arial" font-size="14.00" fill="#666666">[text]</text>
<polygon fill="none" stroke="black" points="2392.37,-505.2 2392.37,-536 3426.27,-536 3426.27,-505.2 2392.37,-505.2"/>
<text text-anchor="start" x="2399.37" y="-517.4" font-family="Arial" font-size="14.00">bookable </text>
<text text-anchor="start" x="2460.09" y="-517.4" font-family="Arial" font-size="14.00" fill="#666666">[boolean]</text>
<text text-anchor="start" x="2517.7" y="-517.4" font-family="Arial" font-size="14.00"> Whether this person appears as a provider in scheduling (columns, qualification pickers, slot search).</text>
<polygon fill="none" stroke="black" points="2392.37,-474.4 2392.37,-505.2 3426.27,-505.2 3426.27,-474.4 2392.37,-474.4"/>
<text text-anchor="start" x="2399.37" y="-486.6" font-family="Arial" font-size="14.00">active </text>
<text text-anchor="start" x="2439.83" y="-486.6" font-family="Arial" font-size="14.00" fill="#666666">[boolean]</text>
<polygon fill="none" stroke="black" points="2392.37,-443.6 2392.37,-474.4 3426.27,-474.4 3426.27,-443.6 2392.37,-443.6"/>
<text text-anchor="start" x="2399.37" y="-455.8" font-family="Arial" font-size="14.00">hired_at </text>
<text text-anchor="start" x="2453.85" y="-455.8" font-family="Arial" font-size="14.00" fill="#666666">[date]</text>
<polygon fill="none" stroke="black" points="2392.37,-412.8 2392.37,-443.6 3426.27,-443.6 3426.27,-412.8 2392.37,-412.8"/>
<text text-anchor="start" x="2399.37" y="-425" font-family="Arial" font-size="14.00">created_at </text>
<text text-anchor="start" x="2469.42" y="-425" font-family="Arial" font-size="14.00" fill="#666666">[timestamp with time zone]</text>
<polygon fill="none" stroke="black" points="2392.37,-382 2392.37,-412.8 3426.27,-412.8 3426.27,-382 2392.37,-382"/>
<text text-anchor="start" x="2399.37" y="-394.2" font-family="Arial" font-size="14.00">avatar_url </text>
<text text-anchor="start" x="2465.52" y="-394.2" font-family="Arial" font-size="14.00" fill="#666666">[text]</text>
<polygon fill="none" stroke="black" points="2392.37,-351.2 2392.37,-382 3426.27,-382 3426.27,-351.2 2392.37,-351.2"/>
<text text-anchor="start" x="2399.37" y="-363.4" font-family="Arial" font-size="14.00">phone </text>
<text text-anchor="start" x="2442.19" y="-363.4" font-family="Arial" font-size="14.00" fill="#666666">[text]</text>
<polygon fill="none" stroke="black" points="2392.37,-320.4 2392.37,-351.2 3426.27,-351.2 3426.27,-320.4 2392.37,-320.4"/>
<text text-anchor="start" x="2399.37" y="-332.6" font-family="Arial" font-size="14.00">pronouns </text>
<text text-anchor="start" x="2461.64" y="-332.6" font-family="Arial" font-size="14.00" fill="#666666">[text]</text>
<polygon fill="none" stroke="black" points="2392.37,-289.6 2392.37,-320.4 3426.27,-320.4 3426.27,-289.6 2392.37,-289.6"/>
<text text-anchor="start" x="2399.37" y="-301.8" font-family="Arial" font-size="14.00">address_line1 </text>
<text text-anchor="start" x="2490.43" y="-301.8" font-family="Arial" font-size="14.00" fill="#666666">[text]</text>
<polygon fill="none" stroke="black" points="2392.37,-258.8 2392.37,-289.6 3426.27,-289.6 3426.27,-258.8 2392.37,-258.8"/>
<text text-anchor="start" x="2399.37" y="-271" font-family="Arial" font-size="14.00">address_line2 </text>
<text text-anchor="start" x="2490.43" y="-271" font-family="Arial" font-size="14.00" fill="#666666">[text]</text>
<polygon fill="none" stroke="black" points="2392.37,-228 2392.37,-258.8 3426.27,-258.8 3426.27,-228 2392.37,-228"/>
<text text-anchor="start" x="2399.37" y="-240.2" font-family="Arial" font-size="14.00">city </text>
<text text-anchor="start" x="2424.26" y="-240.2" font-family="Arial" font-size="14.00" fill="#666666">[text]</text>
<polygon fill="none" stroke="black" points="2392.37,-197.2 2392.37,-228 3426.27,-228 3426.27,-197.2 2392.37,-197.2"/>
<text text-anchor="start" x="2399.37" y="-209.4" font-family="Arial" font-size="14.00">state </text>
<text text-anchor="start" x="2433.61" y="-209.4" font-family="Arial" font-size="14.00" fill="#666666">[text]</text>
<polygon fill="none" stroke="black" points="2392.37,-166.4 2392.37,-197.2 3426.27,-197.2 3426.27,-166.4 2392.37,-166.4"/>
<text text-anchor="start" x="2399.37" y="-178.6" font-family="Arial" font-size="14.00">postal_code </text>
<text text-anchor="start" x="2478.76" y="-178.6" font-family="Arial" font-size="14.00" fill="#666666">[text]</text>
<polygon fill="none" stroke="black" points="2392.37,-135.6 2392.37,-166.4 3426.27,-166.4 3426.27,-135.6 2392.37,-135.6"/>
<text text-anchor="start" x="2399.37" y="-147.8" font-family="Arial" font-size="14.00">emergency_contact_name </text>
<text text-anchor="start" x="2568.25" y="-147.8" font-family="Arial" font-size="14.00" fill="#666666">[text]</text>
<polygon fill="none" stroke="black" points="2392.37,-104.8 2392.37,-135.6 3426.27,-135.6 3426.27,-104.8 2392.37,-104.8"/>
<text text-anchor="start" x="2399.37" y="-117" font-family="Arial" font-size="14.00">emergency_contact_phone </text>
<text text-anchor="start" x="2572.16" y="-117" font-family="Arial" font-size="14.00" fill="#666666">[text]</text>
</g>
<!-- public.appointments&#45;&gt;public.staff -->
<g id="edge5" class="edge">
<title>public.appointments:staff_id&#45;&gt;public.staff:id</title>
<path fill="none" stroke="black" d="M3800.46,-1400.13C3993.11,-1389.89 3923.59,-1088.95 3789.17,-938.4 3742.86,-886.53 3531.77,-946.88 3478.32,-902.4 3418.92,-852.97 3504.54,-736.2 3427.27,-736.2"/>
<polygon fill="black" stroke="black" points="3800.5,-1400.13 3790.39,-1395.89 3795.17,-1400.27 3790.84,-1400.38 3790.84,-1400.38 3790.84,-1400.38 3795.17,-1400.27 3790.62,-1404.89 3800.5,-1400.13"/>
<text text-anchor="start" x="3797.17" y="-1410.4" font-family="Arial" font-size="10.00">FOREIGN KEY (staff_id) REFERENCES staff(id)</text>
</g>
<!-- public.appointments&#45;&gt;public.staff -->
<g id="edge7" class="edge">
<title>public.appointments:cancelled_by&#45;&gt;public.staff:id</title>
<path fill="none" stroke="black" d="M3800.58,-1122.47C3869.71,-1112.22 3841.51,-996.83 3789.17,-938.4 3742.77,-886.6 3531.77,-946.88 3478.32,-902.4 3418.92,-852.97 3504.54,-736.2 3427.27,-736.2"/>
<polygon fill="black" stroke="black" points="3800.48,-1122.48 3790.19,-1118.69 3795.16,-1122.85 3790.84,-1123.15 3790.84,-1123.15 3790.84,-1123.15 3795.16,-1122.85 3790.82,-1127.67 3800.48,-1122.48"/>
<text text-anchor="start" x="3797.17" y="-1133.2" font-family="Arial" font-size="10.00">FOREIGN KEY (cancelled_by) REFERENCES staff(id)</text>
</g>
<!-- public.appointments&#45;&gt;public.staff -->
<g id="edge8" class="edge">
<title>public.appointments:booked_by&#45;&gt;public.staff:id</title>
<path fill="none" stroke="black" d="M3800.24,-1091.56C3856.05,-1081.68 3832.46,-986.67 3789.17,-938.4 3742.75,-886.63 3531.77,-946.88 3478.32,-902.4 3418.92,-852.97 3504.54,-736.2 3427.27,-736.2"/>
<polygon fill="black" stroke="black" points="3800.47,-1091.54 3790.13,-1087.89 3795.16,-1091.99 3790.84,-1092.34 3790.84,-1092.34 3790.84,-1092.34 3795.16,-1091.99 3790.88,-1096.86 3800.47,-1091.54"/>
<text text-anchor="start" x="3797.17" y="-1102.4" font-family="Arial" font-size="10.00">FOREIGN KEY (booked_by) REFERENCES staff(id)</text>
</g>
<!-- public.resources -->
<g id="node7" class="node">
<title>public.resources</title>
<polygon fill="#efefef" stroke="none" points="3530.36,-520.6 3530.36,-566.6 4060.28,-566.6 4060.28,-520.6 3530.36,-520.6"/>
<polygon fill="none" stroke="black" points="3530.36,-520.6 3530.36,-566.6 4060.28,-566.6 4060.28,-520.6 3530.36,-520.6"/>
<text text-anchor="start" x="3674.35" y="-544.4" font-family="Arial Bold" font-size="18.00">public.resources</text>
<text text-anchor="start" x="3791.8" y="-544.4" font-family="Arial" font-size="14.00">    </text>
<text text-anchor="start" x="3822.92" y="-544.4" font-family="Arial" font-size="14.00" fill="#666666">[BASE TABLE]</text>
<text text-anchor="start" x="3537.36" y="-530" font-family="Arial" font-size="14.00" fill="#333333">Concrete rooms per location. Inactive rooms leave bookable inventory immediately.</text>
<polygon fill="none" stroke="black" points="3530.36,-489.8 3530.36,-520.6 4060.28,-520.6 4060.28,-489.8 3530.36,-489.8"/>
<text text-anchor="start" x="3537.36" y="-502" font-family="Arial" font-size="14.00">id </text>
<text text-anchor="start" x="3552.15" y="-502" font-family="Arial" font-size="14.00" fill="#666666">[uuid]</text>
<polygon fill="none" stroke="black" points="3530.36,-459 3530.36,-489.8 4060.28,-489.8 4060.28,-459 3530.36,-459"/>
<text text-anchor="start" x="3537.36" y="-471.2" font-family="Arial" font-size="14.00">location_id </text>
<text text-anchor="start" x="3608.19" y="-471.2" font-family="Arial" font-size="14.00" fill="#666666">[uuid]</text>
<polygon fill="none" stroke="black" points="3530.36,-428.2 3530.36,-459 4060.28,-459 4060.28,-428.2 3530.36,-428.2"/>
<text text-anchor="start" x="3537.36" y="-440.4" font-family="Arial" font-size="14.00">resource_type_id </text>
<text text-anchor="start" x="3648.65" y="-440.4" font-family="Arial" font-size="14.00" fill="#666666">[uuid]</text>
<polygon fill="none" stroke="black" points="3530.36,-397.4 3530.36,-428.2 4060.28,-428.2 4060.28,-397.4 3530.36,-397.4"/>
<text text-anchor="start" x="3537.36" y="-409.6" font-family="Arial" font-size="14.00">name </text>
<text text-anchor="start" x="3576.27" y="-409.6" font-family="Arial" font-size="14.00" fill="#666666">[text]</text>
<polygon fill="none" stroke="black" points="3530.36,-366.6 3530.36,-397.4 4060.28,-397.4 4060.28,-366.6 3530.36,-366.6"/>
<text text-anchor="start" x="3537.36" y="-378.8" font-family="Arial" font-size="14.00">active </text>
<text text-anchor="start" x="3577.82" y="-378.8" font-family="Arial" font-size="14.00" fill="#666666">[boolean]</text>
<polygon fill="none" stroke="black" points="3530.36,-335.8 3530.36,-366.6 4060.28,-366.6 4060.28,-335.8 3530.36,-335.8"/>
<text text-anchor="start" x="3537.36" y="-348" font-family="Arial" font-size="14.00">created_at </text>
<text text-anchor="start" x="3607.41" y="-348" font-family="Arial" font-size="14.00" fill="#666666">[timestamp with time zone]</text>
</g>
<!-- public.appointments&#45;&gt;public.resources -->
<g id="edge6" class="edge">
<title>public.appointments:resource_id&#45;&gt;public.resources:id</title>
<path fill="none" stroke="black" d="M3800.51,-1369.34C3977.03,-1360.34 3850.96,-1116.05 3789.17,-938.4 3728.1,-762.81 3592.07,-785.16 3530.36,-609.8 3514.93,-565.94 3482.87,-505.2 3529.36,-505.2"/>
<polygon fill="black" stroke="black" points="3800.5,-1369.34 3790.4,-1365.09 3795.17,-1369.48 3790.84,-1369.58 3790.84,-1369.58 3790.84,-1369.58 3795.17,-1369.48 3790.62,-1374.09 3800.5,-1369.34"/>
<text text-anchor="start" x="3797.17" y="-1379.6" font-family="Arial" font-size="10.00">FOREIGN KEY (resource_id) REFERENCES resources(id)</text>
</g>
<!-- public.appointment_services -->
<g id="node2" class="node">
<title>public.appointment_services</title>
<polygon fill="#efefef" stroke="none" points="2558.76,-1926 2558.76,-1972 3259.88,-1972 3259.88,-1926 2558.76,-1926"/>
<polygon fill="none" stroke="black" points="2558.76,-1926 2558.76,-1972 3259.88,-1972 3259.88,-1926 2558.76,-1926"/>
<text text-anchor="start" x="2743.85" y="-1949.8" font-family="Arial Bold" font-size="18.00">public.appointment_services</text>
<text text-anchor="start" x="2950.3" y="-1949.8" font-family="Arial" font-size="14.00">    </text>
<text text-anchor="start" x="2981.41" y="-1949.8" font-family="Arial" font-size="14.00" fill="#666666">[BASE TABLE]</text>
<text text-anchor="start" x="2565.76" y="-1935.4" font-family="Arial" font-size="14.00" fill="#333333">Line items with name/price/duration SNAPSHOTS taken at booking: catalog edits never rewrite booked history.</text>
<polygon fill="none" stroke="black" points="2558.76,-1895.2 2558.76,-1926 3259.88,-1926 3259.88,-1895.2 2558.76,-1895.2"/>
<text text-anchor="start" x="2565.76" y="-1907.4" font-family="Arial" font-size="14.00">id </text>
<text text-anchor="start" x="2580.54" y="-1907.4" font-family="Arial" font-size="14.00" fill="#666666">[uuid]</text>
<polygon fill="none" stroke="black" points="2558.76,-1864.4 2558.76,-1895.2 3259.88,-1895.2 3259.88,-1864.4 2558.76,-1864.4"/>
<text text-anchor="start" x="2565.76" y="-1876.6" font-family="Arial" font-size="14.00">appointment_id </text>
<text text-anchor="start" x="2665.39" y="-1876.6" font-family="Arial" font-size="14.00" fill="#666666">[uuid]</text>
<polygon fill="none" stroke="black" points="2558.76,-1833.6 2558.76,-1864.4 3259.88,-1864.4 3259.88,-1833.6 2558.76,-1833.6"/>
<text text-anchor="start" x="2565.76" y="-1845.8" font-family="Arial" font-size="14.00">service_id </text>
<text text-anchor="start" x="2632.68" y="-1845.8" font-family="Arial" font-size="14.00" fill="#666666">[uuid]</text>
<polygon fill="none" stroke="black" points="2558.76,-1802.8 2558.76,-1833.6 3259.88,-1833.6 3259.88,-1802.8 2558.76,-1802.8"/>
<text text-anchor="start" x="2565.76" y="-1815" font-family="Arial" font-size="14.00">name_snapshot </text>
<text text-anchor="start" x="2669.28" y="-1815" font-family="Arial" font-size="14.00" fill="#666666">[text]</text>
<polygon fill="none" stroke="black" points="2558.76,-1772 2558.76,-1802.8 3259.88,-1802.8 3259.88,-1772 2558.76,-1772"/>
<text text-anchor="start" x="2565.76" y="-1784.2" font-family="Arial" font-size="14.00">price_cents </text>
<text text-anchor="start" x="2641.24" y="-1784.2" font-family="Arial" font-size="14.00" fill="#666666">[integer]</text>
<polygon fill="none" stroke="black" points="2558.76,-1741.2 2558.76,-1772 3259.88,-1772 3259.88,-1741.2 2558.76,-1741.2"/>
<text text-anchor="start" x="2565.76" y="-1753.4" font-family="Arial" font-size="14.00">duration_min </text>
<text text-anchor="start" x="2650.59" y="-1753.4" font-family="Arial" font-size="14.00" fill="#666666">[integer]</text>
<polygon fill="none" stroke="black" points="2558.76,-1710.4 2558.76,-1741.2 3259.88,-1741.2 3259.88,-1710.4 2558.76,-1710.4"/>
<text text-anchor="start" x="2565.76" y="-1722.6" font-family="Arial" font-size="14.00">sort_order </text>
<text text-anchor="start" x="2633.45" y="-1722.6" font-family="Arial" font-size="14.00" fill="#666666">[integer]</text>
</g>
<!-- public.appointment_services&#45;&gt;public.appointments -->
<g id="edge1" class="edge">
<title>public.appointment_services:appointment_id&#45;&gt;public.appointments:id</title>
<path fill="none" stroke="black" d="M3270.95,-1879.65C3556.72,-1871.5 4070.4,-1523.6 3790.17,-1523.6"/>
<polygon fill="black" stroke="black" points="3271.21,-1879.65 3261.15,-1875.3 3265.88,-1879.73 3261.55,-1879.79 3261.55,-1879.79 3261.55,-1879.79 3265.88,-1879.73 3261.28,-1884.29 3271.21,-1879.65"/>
<text text-anchor="start" x="3267.88" y="-1889.8" font-family="Arial" font-size="10.00">FOREIGN KEY (appointment_id) REFERENCES appointments(id) ON DELETE CASCADE</text>
</g>
</g>
</svg>
