<?xml version="1.0" encoding="UTF-8" standalone="no"?>
<!DOCTYPE svg PUBLIC "-//W3C//DTD SVG 1.1//EN"
 "http://www.w3.org/Graphics/SVG/1.1/DTD/svg11.dtd">
<!-- Generated by graphviz version 12.1.2 (20240928.0832)
 -->
<!-- Title: public.stripe_events Pages: 1 -->
<svg width="1007pt" height="239pt"
 viewBox="0.00 0.00 1007.34 238.80" xmlns="http://www.w3.org/2000/svg" xmlns:xlink="http://www.w3.org/1999/xlink">
<g id="graph0" class="graph" transform="scale(1 1) rotate(0) translate(4 234.8)">
<title>public.stripe_events</title>
<polygon fill="white" stroke="none" points="-4,4 -4,-234.8 1003.34,-234.8 1003.34,4 -4,4"/>
<!-- public.stripe_events -->
<g id="node1" class="node">
<title>public.stripe_events</title>
<polygon fill="#efefef" stroke="none" points="46.2,-138.6 46.2,-184.6 953.14,-184.6 953.14,-138.6 46.2,-138.6"/>
<polygon fill="none" stroke="black" points="46.2,-138.6 46.2,-184.6 953.14,-184.6 953.14,-138.6 46.2,-138.6"/>
<text text-anchor="start" x="365.19" y="-162.4" font-family="Arial Bold" font-size="18.00">public.stripe_events</text>
<text text-anchor="start" x="509.66" y="-162.4" font-family="Arial" font-size="14.00">    </text>
<text text-anchor="start" x="540.77" y="-162.4" font-family="Arial" font-size="14.00" fill="#666666">[BASE TABLE]</text>
<text text-anchor="start" x="53.2" y="-148" font-family="Arial" font-size="14.00" fill="#333333">Processed Stripe webhook event ids for idempotency. Insert&#45;on&#45;arrival; unique violation = duplicate delivery, skip. Service&#45;role only (no policies).</text>
<polygon fill="none" stroke="black" points="46.2,-107.8 46.2,-138.6 953.14,-138.6 953.14,-107.8 46.2,-107.8"/>
<text text-anchor="start" x="53.2" y="-120" font-family="Arial" font-size="14.00">id </text>
<text text-anchor="start" x="67.99" y="-120" font-family="Arial" font-size="14.00" fill="#666666">[text]</text>
<polygon fill="none" stroke="black" points="46.2,-77 46.2,-107.8 953.14,-107.8 953.14,-77 46.2,-77"/>
<text text-anchor="start" x="53.2" y="-89.2" font-family="Arial" font-size="14.00">type </text>
<text text-anchor="start" x="83.55" y="-89.2" font-family="Arial" font-size="14.00" fill="#666666">[text]</text>
<polygon fill="none" stroke="black" points="46.2,-46.2 46.2,-77 953.14,-77 953.14,-46.2 46.2,-46.2"/>
<text text-anchor="start" x="53.2" y="-58.4" font-family="Arial" font-size="14.00">processed_at </text>
<text text-anchor="start" x="141.14" y="-58.4" font-family="Arial" font-size="14.00" fill="#666666">[timestamp with time zone]</text>
<polygon fill="none" stroke="black" stroke-width="3" points="44.7,-44.7 44.7,-186.1 954.64,-186.1 954.64,-44.7 44.7,-44.7"/>
</g>
</g>
</svg>
