<?xml version="1.0" encoding="UTF-8" standalone="no"?>
<!DOCTYPE svg PUBLIC "-//W3C//DTD SVG 1.1//EN"
 "http://www.w3.org/Graphics/SVG/1.1/DTD/svg11.dtd">
<!-- Generated by graphviz version 12.1.2 (20240928.0832)
 -->
<!-- Title: public.availability_rules Pages: 1 -->
<svg width="1760pt" height="1239pt"
 viewBox="0.00 0.00 1759.88 1238.80" xmlns="http://www.w3.org/2000/svg" xmlns:xlink="http://www.w3.org/1999/xlink">
<g id="graph0" class="graph" transform="scale(1 1) rotate(0) translate(4 1234.8)">
<title>public.availability_rules</title>
<polygon fill="white" stroke="none" points="-4,4 -4,-1234.8 1755.88,-1234.8 1755.88,4 -4,4"/>
<!-- public.availability_rules -->
<g id="node1" class="node">
<title>public.availability_rules</title>
<polygon fill="#efefef" stroke="none" points="384.82,-1138.6 384.82,-1184.6 1483.48,-1184.6 1483.48,-1138.6 384.82,-1138.6"/>
<polygon fill="none" stroke="black" points="384.82,-1138.6 384.82,-1184.6 1483.48,-1184.6 1483.48,-1138.6 384.82,-1138.6"/>
<text text-anchor="start" x="784.68" y="-1162.4" font-family="Arial Bold" font-size="18.00">public.availability_rules</text>
<text text-anchor="start" x="959.13" y="-1162.4" font-family="Arial" font-size="14.00">    </text>
<text text-anchor="start" x="990.25" y="-1162.4" font-family="Arial" font-size="14.00" fill="#666666">[BASE TABLE]</text>
<text text-anchor="start" x="391.82" y="-1148" font-family="Arial" font-size="14.00" fill="#333333">Recurring weekly hours in LOCATION&#45;LOCAL time (survives DST). Overlaps per staff/day are impossible: no_overlapping_hours exclusion constraint (timerange custom type).</text>
<polygon fill="none" stroke="black" points="384.82,-1107.8 384.82,-1138.6 1483.48,-1138.6 1483.48,-1107.8 384.82,-1107.8"/>
<text text-anchor="start" x="391.82" y="-1120" font-family="Arial" font-size="14.00">id </text>
<text text-anchor="start" x="406.6" y="-1120" font-family="Arial" font-size="14.00" fill="#666666">[uuid]</text>
<polygon fill="none" stroke="black" points="384.82,-1077 384.82,-1107.8 1483.48,-1107.8 1483.48,-1077 384.82,-1077"/>
<text text-anchor="start" x="391.82" y="-1089.2" font-family="Arial" font-size="14.00">staff_id </text>
<text text-anchor="start" x="440.85" y="-1089.2" font-family="Arial" font-size="14.00" fill="#666666">[uuid]</text>
<polygon fill="none" stroke="black" points="384.82,-1046.2 384.82,-1077 1483.48,-1077 1483.48,-1046.2 384.82,-1046.2"/>
<text text-anchor="start" x="391.82" y="-1058.4" font-family="Arial" font-size="14.00">location_id </text>
<text text-anchor="start" x="462.65" y="-1058.4" font-family="Arial" font-size="14.00" fill="#666666">[uuid]</text>
<polygon fill="none" stroke="black" points="384.82,-1015.4 384.82,-1046.2 1483.48,-1046.2 1483.48,-1015.4 384.82,-1015.4"/>
<text text-anchor="start" x="391.82" y="-1027.6" font-family="Arial" font-size="14.00">day_of_week </text>
<text text-anchor="start" x="478.21" y="-1027.6" font-family="Arial" font-size="14.00" fill="#666666">[integer]</text>
<polygon fill="none" stroke="black" points="384.82,-984.6 384.82,-1015.4 1483.48,-1015.4 1483.48,-984.6 384.82,-984.6"/>
<text text-anchor="start" x="391.82" y="-996.8" font-family="Arial" font-size="14.00">start_time </text>
<text text-anchor="start" x="457.17" y="-996.8" font-family="Arial" font-size="14.00" fill="#666666">[time without time zone]</text>
<polygon fill="none" stroke="black" points="384.82,-953.8 384.82,-984.6 1483.48,-984.6 1483.48,-953.8 384.82,-953.8"/>
<text text-anchor="start" x="391.82" y="-966" font-family="Arial" font-size="14.00">end_time </text>
<text text-anchor="start" x="453.3" y="-966" font-family="Arial" font-size="14.00" fill="#666666">[time without time zone]</text>
<polygon fill="none" stroke="black" points="384.82,-923 384.82,-953.8 1483.48,-953.8 1483.48,-923 384.82,-923"/>
<text text-anchor="start" x="391.82" y="-935.2" font-family="Arial" font-size="14.00">valid_from </text>
<text text-anchor="start" x="460.29" y="-935.2" font-family="Arial" font-size="14.00" fill="#666666">[date]</text>
<polygon fill="none" stroke="black" points="384.82,-892.2 384.82,-923 1483.48,-923 1483.48,-892.2 384.82,-892.2"/>
<text text-anchor="start" x="391.82" y="-904.4" font-family="Arial" font-size="14.00">valid_until </text>
<text text-anchor="start" x="457.97" y="-904.4" font-family="Arial" font-size="14.00" fill="#666666">[date]</text>
<polygon fill="none" stroke="black" points="384.82,-861.4 384.82,-892.2 1483.48,-892.2 1483.48,-861.4 384.82,-861.4"/>
<text text-anchor="start" x="391.82" y="-873.6" font-family="Arial" font-size="14.00">created_at </text>
<text text-anchor="start" x="461.87" y="-873.6" font-family="Arial" font-size="14.00" fill="#666666">[timestamp with time zone]</text>
<polygon fill="none" stroke="black" stroke-width="3" points="383.32,-859.9 383.32,-1186.1 1484.98,-1186.1 1484.98,-859.9 383.32,-859.9"/>
</g>
<!-- public.staff -->
<g id="node2" class="node">
<title>public.staff</title>
<polygon fill="#efefef" stroke="none" points="43.2,-690 43.2,-736 1077.09,-736 1077.09,-690 43.2,-690"/>
<polygon fill="none" stroke="black" points="43.2,-690 43.2,-736 1077.09,-736 1077.09,-690 43.2,-690"/>
<text text-anchor="start" x="457.17" y="-713.8" font-family="Arial Bold" font-size="18.00">public.staff</text>
<text text-anchor="start" x="538.64" y="-713.8" font-family="Arial" font-size="14.00">    </text>
<text text-anchor="start" x="569.76" y="-713.8" font-family="Arial" font-size="14.00" fill="#666666">[BASE TABLE]</text>
<text text-anchor="start" x="50.2" y="-699.4" font-family="Arial" font-size="14.00" fill="#333333">Employees. Linked 1:1 to auth.users via user_id. Deactivated (active=false), never deleted. Self&#45;editable personal fields are guarded by trg_guard_staff_self_update.</text>
<polygon fill="none" stroke="black" points="43.2,-659.2 43.2,-690 1077.09,-690 1077.09,-659.2 43.2,-659.2"/>
<text text-anchor="start" x="50.2" y="-671.4" font-family="Arial" font-size="14.00">id </text>
<text text-anchor="start" x="64.99" y="-671.4" font-family="Arial" font-size="14.00" fill="#666666">[uuid]</text>
<polygon fill="none" stroke="black" points="43.2,-628.4 43.2,-659.2 1077.09,-659.2 1077.09,-628.4 43.2,-628.4"/>
<text text-anchor="start" x="50.2" y="-640.6" font-family="Arial" font-size="14.00">organization_id </text>
<text text-anchor="start" x="149.05" y="-640.6" font-family="Arial" font-size="14.00" fill="#666666">[uuid]</text>
<polygon fill="none" stroke="black" points="43.2,-597.6 43.2,-628.4 1077.09,-628.4 1077.09,-597.6 43.2,-597.6"/>
<text text-anchor="start" x="50.2" y="-609.8" font-family="Arial" font-size="14.00">user_id </text>
<text text-anchor="start" x="100.01" y="-609.8" font-family="Arial" font-size="14.00" fill="#666666">[uuid]</text>
<polygon fill="none" stroke="black" points="43.2,-566.8 43.2,-597.6 1077.09,-597.6 1077.09,-566.8 43.2,-566.8"/>
<text text-anchor="start" x="50.2" y="-579" font-family="Arial" font-size="14.00">display_name </text>
<text text-anchor="start" x="140.48" y="-579" font-family="Arial" font-size="14.00" fill="#666666">[text]</text>
<polygon fill="none" stroke="black" points="43.2,-536 43.2,-566.8 1077.09,-566.8 1077.09,-536 43.2,-536"/>
<text text-anchor="start" x="50.2" y="-548.2" font-family="Arial" font-size="14.00">email </text>
<text text-anchor="start" x="87.54" y="-548.2" font-family="Arial" font-size="14.00" fill="#666666">[text]</text>
<polygon fill="none" stroke="black" points="43.2,-505.2 43.2,-536 1077.09,-536 1077.09,-505.2 43.2,-505.2"/>
<text text-anchor="start" x="50.2" y="-517.4" font-family="Arial" font-size="14.00">title </text>
<text text-anchor="start" x="75.88" y="-517.4" font-family="Arial" font-size="14.00" fill="#666666">[text]</text>
<polygon fill="none" stroke="black" points="43.2,-474.4 43.2,-505.2 1077.09,-505.2 1077.09,-474.4 43.2,-474.4"/>
<text text-anchor="start" x="50.2" y="-486.6" font-family="Arial" font-size="14.00">color </text>
<text text-anchor="start" x="84.43" y="-486.6" font-family="Arial" font-size="14.00" fill="#666666">[text]</text>
<polygon fill="none" stroke="black" points="43.2,-443.6 43.2,-474.4 1077.09,-474.4 1077.09,-443.6 43.2,-443.6"/>
<text text-anchor="start" x="50.2" y="-455.8" font-family="Arial" font-size="14.00">bookable </text>
<text text-anchor="start" x="110.92" y="-455.8" font-family="Arial" font-size="14.00" fill="#666666">[boolean]</text>
<text text-anchor="start" x="168.52" y="-455.8" font-family="Arial" font-size="14.00"> Whether this person appears as a provider in scheduling (columns, qualification pickers, slot search).</text>
<polygon fill="none" stroke="black" points="43.2,-412.8 43.2,-443.6 1077.09,-443.6 1077.09,-412.8 43.2,-412.8"/>
<text text-anchor="start" x="50.2" y="-425" font-family="Arial" font-size="14.00">active </text>
<text text-anchor="start" x="90.66" y="-425" font-family="Arial" font-size="14.00" fill="#666666">[boolean]</text>
<polygon fill="none" stroke="black" points="43.2,-382 43.2,-412.8 1077.09,-412.8 1077.09,-382 43.2,-382"/>
<text text-anchor="start" x="50.2" y="-394.2" font-family="Arial" font-size="14.00">hired_at </text>
<text text-anchor="start" x="104.68" y="-394.2" font-family="Arial" font-size="14.00" fill="#666666">[date]</text>
<polygon fill="none" stroke="black" points="43.2,-351.2 43.2,-382 1077.09,-382 1077.09,-351.2 43.2,-351.2"/>
<text text-anchor="start" x="50.2" y="-363.4" font-family="Arial" font-size="14.00">created_at </text>
<text text-anchor="start" x="120.25" y="-363.4" font-family="Arial" font-size="14.00" fill="#666666">[timestamp with time zone]</text>
<polygon fill="none" stroke="black" points="43.2,-320.4 43.2,-351.2 1077.09,-351.2 1077.09,-320.4 43.2,-320.4"/>
<text text-anchor="start" x="50.2" y="-332.6" font-family="Arial" font-size="14.00">avatar_url </text>
<text text-anchor="start" x="116.34" y="-332.6" font-family="Arial" font-size="14.00" fill="#666666">[text]</text>
<polygon fill="none" stroke="black" points="43.2,-289.6 43.2,-320.4 1077.09,-320.4 1077.09,-289.6 43.2,-289.6"/>
<text text-anchor="start" x="50.2" y="-301.8" font-family="Arial" font-size="14.00">phone </text>
<text text-anchor="start" x="93.02" y="-301.8" font-family="Arial" font-size="14.00" fill="#666666">[text]</text>
<polygon fill="none" stroke="black" points="43.2,-258.8 43.2,-289.6 1077.09,-289.6 1077.09,-258.8 43.2,-258.8"/>
<text text-anchor="start" x="50.2" y="-271" font-family="Arial" font-size="14.00">pronouns </text>
<text text-anchor="start" x="112.47" y="-271" font-family="Arial" font-size="14.00" fill="#666666">[text]</text>
<polygon fill="none" stroke="black" points="43.2,-228 43.2,-258.8 1077.09,-258.8 1077.09,-228 43.2,-228"/>
<text text-anchor="start" x="50.2" y="-240.2" font-family="Arial" font-size="14.00">address_line1 </text>
<text text-anchor="start" x="141.26" y="-240.2" font-family="Arial" font-size="14.00" fill="#666666">[text]</text>
<polygon fill="none" stroke="black" points="43.2,-197.2 43.2,-228 1077.09,-228 1077.09,-197.2 43.2,-197.2"/>
<text text-anchor="start" x="50.2" y="-209.4" font-family="Arial" font-size="14.00">address_line2 </text>
<text text-anchor="start" x="141.26" y="-209.4" font-family="Arial" font-size="14.00" fill="#666666">[text]</text>
<polygon fill="none" stroke="black" points="43.2,-166.4 43.2,-197.2 1077.09,-197.2 1077.09,-166.4 43.2,-166.4"/>
<text text-anchor="start" x="50.2" y="-178.6" font-family="Arial" font-size="14.00">city </text>
<text text-anchor="start" x="75.09" y="-178.6" font-family="Arial" font-size="14.00" fill="#666666">[text]</text>
<polygon fill="none" stroke="black" points="43.2,-135.6 43.2,-166.4 1077.09,-166.4 1077.09,-135.6 43.2,-135.6"/>
<text text-anchor="start" x="50.2" y="-147.8" font-family="Arial" font-size="14.00">state </text>
<text text-anchor="start" x="84.44" y="-147.8" font-family="Arial" font-size="14.00" fill="#666666">[text]</text>
<polygon fill="none" stroke="black" points="43.2,-104.8 43.2,-135.6 1077.09,-135.6 1077.09,-104.8 43.2,-104.8"/>
<text text-anchor="start" x="50.2" y="-117" font-family="Arial" font-size="14.00">postal_code </text>
<text text-anchor="start" x="129.59" y="-117" font-family="Arial" font-size="14.00" fill="#666666">[text]</text>
<polygon fill="none" stroke="black" points="43.2,-74 43.2,-104.8 1077.09,-104.8 1077.09,-74 43.2,-74"/>
<text text-anchor="start" x="50.2" y="-86.2" font-family="Arial" font-size="14.00">emergency_contact_name </text>
<text text-anchor="start" x="219.08" y="-86.2" font-family="Arial" font-size="14.00" fill="#666666">[text]</text>
<polygon fill="none" stroke="black" points="43.2,-43.2 43.2,-74 1077.09,-74 1077.09,-43.2 43.2,-43.2"/>
<text text-anchor="start" x="50.2" y="-55.4" font-family="Arial" font-size="14.00">emergency_contact_phone </text>
<text text-anchor="start" x="222.99" y="-55.4" font-family="Arial" font-size="14.00" fill="#666666">[text]</text>
</g>
<!-- public.availability_rules&#45;&gt;public.staff -->
<g id="edge1" class="edge">
<title>public.availability_rules:staff_id&#45;&gt;public.staff:id</title>
<path fill="none" stroke="black" d="M373.41,-1091.92C262.95,-1081.47 302.32,-901.78 384.82,-815.2 437.95,-759.44 1023.8,-834.81 1077.09,-779.2 1109.26,-745.64 1124.59,-674.6 1078.09,-674.6"/>
<polygon fill="black" stroke="black" points="373.49,-1091.93 383.28,-1096.88 378.82,-1092.17 383.15,-1092.37 383.15,-1092.37 383.15,-1092.37 378.82,-1092.17 383.69,-1087.89 373.49,-1091.93"/>
<text text-anchor="start" x="48.97" y="-1102.4" font-family="Arial" font-size="10.00">FOREIGN KEY (staff_id) REFERENCES staff(id) ON DELETE CASCADE</text>
</g>
<!-- public.locations -->
<g id="node3" class="node">
<title>public.locations</title>
<polygon fill="#efefef" stroke="none" points="1181.66,-479.6 1181.66,-515.2 1434.63,-515.2 1434.63,-479.6 1181.66,-479.6"/>
<polygon fill="none" stroke="black" points="1181.66,-479.6 1181.66,-515.2 1434.63,-515.2 1434.63,-479.6 1181.66,-479.6"/>
<text text-anchor="start" x="1188.66" y="-493" font-family="Arial Bold" font-size="18.00">public.locations</text>
<text text-anchor="start" x="1303.14" y="-493" font-family="Arial" font-size="14.00">    </text>
<text text-anchor="start" x="1334.26" y="-493" font-family="Arial" font-size="14.00" fill="#666666">[BASE TABLE]</text>
<polygon fill="none" stroke="black" points="1181.66,-448.8 1181.66,-479.6 1434.63,-479.6 1434.63,-448.8 1181.66,-448.8"/>
<text text-anchor="start" x="1188.66" y="-461" font-family="Arial" font-size="14.00">id </text>
<text text-anchor="start" x="1203.45" y="-461" font-family="Arial" font-size="14.00" fill="#666666">[uuid]</text>
<polygon fill="none" stroke="black" points="1181.66,-418 1181.66,-448.8 1434.63,-448.8 1434.63,-418 1181.66,-418"/>
<text text-anchor="start" x="1188.66" y="-430.2" font-family="Arial" font-size="14.00">organization_id </text>
<text text-anchor="start" x="1287.51" y="-430.2" font-family="Arial" font-size="14.00" fill="#666666">[uuid]</text>
<polygon fill="none" stroke="black" points="1181.66,-387.2 1181.66,-418 1434.63,-418 1434.63,-387.2 1181.66,-387.2"/>
<text text-anchor="start" x="1188.66" y="-399.4" font-family="Arial" font-size="14.00">name </text>
<text text-anchor="start" x="1227.57" y="-399.4" font-family="Arial" font-size="14.00" fill="#666666">[text]</text>
<polygon fill="none" stroke="black" points="1181.66,-356.4 1181.66,-387.2 1434.63,-387.2 1434.63,-356.4 1181.66,-356.4"/>
<text text-anchor="start" x="1188.66" y="-368.6" font-family="Arial" font-size="14.00">timezone </text>
<text text-anchor="start" x="1249.36" y="-368.6" font-family="Arial" font-size="14.00" fill="#666666">[text]</text>
<polygon fill="none" stroke="black" points="1181.66,-325.6 1181.66,-356.4 1434.63,-356.4 1434.63,-325.6 1181.66,-325.6"/>
<text text-anchor="start" x="1188.66" y="-337.8" font-family="Arial" font-size="14.00">business_hours </text>
<text text-anchor="start" x="1290.62" y="-337.8" font-family="Arial" font-size="14.00" fill="#666666">[jsonb]</text>
<polygon fill="none" stroke="black" points="1181.66,-294.8 1181.66,-325.6 1434.63,-325.6 1434.63,-294.8 1181.66,-294.8"/>
<text text-anchor="start" x="1188.66" y="-307" font-family="Arial" font-size="14.00">active </text>
<text text-anchor="start" x="1229.13" y="-307" font-family="Arial" font-size="14.00" fill="#666666">[boolean]</text>
<polygon fill="none" stroke="black" points="1181.66,-264 1181.66,-294.8 1434.63,-294.8 1434.63,-264 1181.66,-264"/>
<text text-anchor="start" x="1188.66" y="-276.2" font-family="Arial" font-size="14.00">created_at </text>
<text text-anchor="start" x="1258.71" y="-276.2" font-family="Arial" font-size="14.00" fill="#666666">[timestamp with time zone]</text>
</g>
<!-- public.availability_rules&#45;&gt;public.locations -->
<g id="edge2" class="edge">
<title>public.availability_rules:location_id&#45;&gt;public.locations:id</title>
<path fill="none" stroke="black" d="M1494.82,-1061.12C1589.73,-1051.89 1528.09,-911.22 1483.48,-815.2 1409.27,-655.47 1256.4,-717.88 1181.66,-558.4 1163.9,-520.49 1138.79,-464.2 1180.66,-464.2"/>
<polygon fill="black" stroke="black" points="1494.8,-1061.12 1484.6,-1057.09 1489.47,-1061.37 1485.14,-1061.57 1485.14,-1061.57 1485.14,-1061.57 1489.47,-1061.37 1485.02,-1066.08 1494.8,-1061.12"/>
<text text-anchor="start" x="1491.48" y="-1071.6" font-family="Arial" font-size="10.00">FOREIGN KEY (location_id) REFERENCES locations(id)</text>
</g>
</g>
</svg>
