<?xml version="1.0" encoding="UTF-8" standalone="no"?>
<!DOCTYPE svg PUBLIC "-//W3C//DTD SVG 1.1//EN"
 "http://www.w3.org/Graphics/SVG/1.1/DTD/svg11.dtd">
<!-- Generated by graphviz version 12.1.2 (20240928.0832)
 -->
<!-- Title: public.gift_cards Pages: 1 -->
<svg width="3244pt" height="1992pt"
 viewBox="0.00 0.00 3243.55 1992.40" xmlns="http://www.w3.org/2000/svg" xmlns:xlink="http://www.w3.org/1999/xlink">
<g id="graph0" class="graph" transform="scale(1 1) rotate(0) translate(4 1988.4)">
<title>public.gift_cards</title>
<polygon fill="white" stroke="none" points="-4,4 -4,-1988.4 3239.55,-1988.4 3239.55,4 -4,4"/>
<!-- public.gift_cards -->
<g id="node1" class="node">
<title>public.gift_cards</title>
<polygon fill="#efefef" stroke="none" points="1230.26,-1292.6 1230.26,-1338.6 2200.66,-1338.6 2200.66,-1292.6 1230.26,-1292.6"/>
<polygon fill="none" stroke="black" points="1230.26,-1292.6 1230.26,-1338.6 2200.66,-1338.6 2200.66,-1292.6 1230.26,-1292.6"/>
<text text-anchor="start" x="1592.49" y="-1316.4" font-family="Arial Bold" font-size="18.00">public.gift_cards</text>
<text text-anchor="start" x="1713.95" y="-1316.4" font-family="Arial" font-size="14.00">    </text>
<text text-anchor="start" x="1745.07" y="-1316.4" font-family="Arial" font-size="14.00" fill="#666666">[BASE TABLE]</text>
<text text-anchor="start" x="1237.26" y="-1302" font-family="Arial" font-size="14.00" fill="#333333">Balance maintained by triggers: created/loaded by a gift_card SALE item, decremented by a gift_card PAYMENT. Balance can never go negative (trigger).</text>
<polygon fill="none" stroke="black" points="1230.26,-1261.8 1230.26,-1292.6 2200.66,-1292.6 2200.66,-1261.8 1230.26,-1261.8"/>
<text text-anchor="start" x="1237.26" y="-1274" font-family="Arial" font-size="14.00">id </text>
<text text-anchor="start" x="1252.05" y="-1274" font-family="Arial" font-size="14.00" fill="#666666">[uuid]</text>
<polygon fill="none" stroke="black" points="1230.26,-1231 1230.26,-1261.8 2200.66,-1261.8 2200.66,-1231 1230.26,-1231"/>
<text text-anchor="start" x="1237.26" y="-1243.2" font-family="Arial" font-size="14.00">organization_id </text>
<text text-anchor="start" x="1336.11" y="-1243.2" font-family="Arial" font-size="14.00" fill="#666666">[uuid]</text>
<polygon fill="none" stroke="black" points="1230.26,-1200.2 1230.26,-1231 2200.66,-1231 2200.66,-1200.2 1230.26,-1200.2"/>
<text text-anchor="start" x="1237.26" y="-1212.4" font-family="Arial" font-size="14.00">code </text>
<text text-anchor="start" x="1271.51" y="-1212.4" font-family="Arial" font-size="14.00" fill="#666666">[text]</text>
<polygon fill="none" stroke="black" points="1230.26,-1169.4 1230.26,-1200.2 2200.66,-1200.2 2200.66,-1169.4 1230.26,-1169.4"/>
<text text-anchor="start" x="1237.26" y="-1181.6" font-family="Arial" font-size="14.00">initial_balance_cents </text>
<text text-anchor="start" x="1371.13" y="-1181.6" font-family="Arial" font-size="14.00" fill="#666666">[integer]</text>
<polygon fill="none" stroke="black" points="1230.26,-1138.6 1230.26,-1169.4 2200.66,-1169.4 2200.66,-1138.6 1230.26,-1138.6"/>
<text text-anchor="start" x="1237.26" y="-1150.8" font-family="Arial" font-size="14.00">balance_cents </text>
<text text-anchor="start" x="1331.44" y="-1150.8" font-family="Arial" font-size="14.00" fill="#666666">[integer]</text>
<polygon fill="none" stroke="black" points="1230.26,-1107.8 1230.26,-1138.6 2200.66,-1138.6 2200.66,-1107.8 1230.26,-1107.8"/>
<text text-anchor="start" x="1237.26" y="-1120" font-family="Arial" font-size="14.00">purchaser_client_id </text>
<text text-anchor="start" x="1362.56" y="-1120" font-family="Arial" font-size="14.00" fill="#666666">[uuid]</text>
<polygon fill="none" stroke="black" points="1230.26,-1077 1230.26,-1107.8 2200.66,-1107.8 2200.66,-1077 1230.26,-1077"/>
<text text-anchor="start" x="1237.26" y="-1089.2" font-family="Arial" font-size="14.00">recipient_name </text>
<text text-anchor="start" x="1336.88" y="-1089.2" font-family="Arial" font-size="14.00" fill="#666666">[text]</text>
<polygon fill="none" stroke="black" points="1230.26,-1046.2 1230.26,-1077 2200.66,-1077 2200.66,-1046.2 1230.26,-1046.2"/>
<text text-anchor="start" x="1237.26" y="-1058.4" font-family="Arial" font-size="14.00">recipient_email </text>
<text text-anchor="start" x="1335.31" y="-1058.4" font-family="Arial" font-size="14.00" fill="#666666">[text]</text>
<polygon fill="none" stroke="black" points="1230.26,-1015.4 1230.26,-1046.2 2200.66,-1046.2 2200.66,-1015.4 1230.26,-1015.4"/>
<text text-anchor="start" x="1237.26" y="-1027.6" font-family="Arial" font-size="14.00">active </text>
<text text-anchor="start" x="1277.72" y="-1027.6" font-family="Arial" font-size="14.00" fill="#666666">[boolean]</text>
<polygon fill="none" stroke="black" points="1230.26,-984.6 1230.26,-1015.4 2200.66,-1015.4 2200.66,-984.6 1230.26,-984.6"/>
<text text-anchor="start" x="1237.26" y="-996.8" font-family="Arial" font-size="14.00">created_at </text>
<text text-anchor="start" x="1307.31" y="-996.8" font-family="Arial" font-size="14.00" fill="#666666">[timestamp with time zone]</text>
<polygon fill="none" stroke="black" stroke-width="3" points="1228.76,-983.1 1228.76,-1340.1 2202.16,-1340.1 2202.16,-983.1 1228.76,-983.1"/>
</g>
<!-- public.organizations -->
<g id="node4" class="node">
<title>public.organizations</title>
<polygon fill="#efefef" stroke="none" points="900.34,-505.2 900.34,-551.2 1534.58,-551.2 1534.58,-505.2 900.34,-505.2"/>
<polygon fill="none" stroke="black" points="900.34,-505.2 900.34,-551.2 1534.58,-551.2 1534.58,-505.2 900.34,-505.2"/>
<text text-anchor="start" x="1081.99" y="-529" font-family="Arial Bold" font-size="18.00">public.organizations</text>
<text text-anchor="start" x="1228.45" y="-529" font-family="Arial" font-size="14.00">    </text>
<text text-anchor="start" x="1259.57" y="-529" font-family="Arial" font-size="14.00" fill="#666666">[BASE TABLE]</text>
<text text-anchor="start" x="907.34" y="-514.6" font-family="Arial" font-size="14.00" fill="#333333">Tenant root. Single row today; every domain table hangs off organization_id for future multi&#45;tenancy.</text>
<polygon fill="none" stroke="black" points="900.34,-474.4 900.34,-505.2 1534.58,-505.2 1534.58,-474.4 900.34,-474.4"/>
<text text-anchor="start" x="907.34" y="-486.6" font-family="Arial" font-size="14.00">id </text>
<text text-anchor="start" x="922.13" y="-486.6" font-family="Arial" font-size="14.00" fill="#666666">[uuid]</text>
<polygon fill="none" stroke="black" points="900.34,-443.6 900.34,-474.4 1534.58,-474.4 1534.58,-443.6 900.34,-443.6"/>
<text text-anchor="start" x="907.34" y="-455.8" font-family="Arial" font-size="14.00">name </text>
<text text-anchor="start" x="946.25" y="-455.8" font-family="Arial" font-size="14.00" fill="#666666">[text]</text>
<polygon fill="none" stroke="black" points="900.34,-412.8 900.34,-443.6 1534.58,-443.6 1534.58,-412.8 900.34,-412.8"/>
<text text-anchor="start" x="907.34" y="-425" font-family="Arial" font-size="14.00">timezone </text>
<text text-anchor="start" x="968.04" y="-425" font-family="Arial" font-size="14.00" fill="#666666">[text]</text>
<polygon fill="none" stroke="black" points="900.34,-382 900.34,-412.8 1534.58,-412.8 1534.58,-382 900.34,-382"/>
<text text-anchor="start" x="907.34" y="-394.2" font-family="Arial" font-size="14.00">branding </text>
<text text-anchor="start" x="965.72" y="-394.2" font-family="Arial" font-size="14.00" fill="#666666">[jsonb]</text>
<polygon fill="none" stroke="black" points="900.34,-351.2 900.34,-382 1534.58,-382 1534.58,-351.2 900.34,-351.2"/>
<text text-anchor="start" x="907.34" y="-363.4" font-family="Arial" font-size="14.00">created_at </text>
<text text-anchor="start" x="977.39" y="-363.4" font-family="Arial" font-size="14.00" fill="#666666">[timestamp with time zone]</text>
</g>
<!-- public.gift_cards&#45;&gt;public.organizations -->
<g id="edge3" class="edge">
<title>public.gift_cards:organization_id&#45;&gt;public.organizations:id</title>
<path fill="none" stroke="black" d="M1218.9,-1246.03C1097.05,-1236.94 1182.84,-1062.96 1230.26,-938.4 1302.89,-747.63 1461.35,-784.94 1534.58,-594.4 1551.26,-551 1582.07,-489.8 1535.58,-489.8"/>
<polygon fill="black" stroke="black" points="1218.93,-1246.03 1228.77,-1250.89 1224.27,-1246.22 1228.59,-1246.38 1228.59,-1246.38 1228.59,-1246.38 1224.27,-1246.22 1229.09,-1241.89 1218.93,-1246.03"/>
<text text-anchor="start" x="928.83" y="-1256.4" font-family="Arial" font-size="10.00">FOREIGN KEY (organization_id) REFERENCES organizations(id)</text>
</g>
<!-- public.clients -->
<g id="node5" class="node">
<title>public.clients</title>
<polygon fill="#efefef" stroke="none" points="1639.13,-813.2 1639.13,-859.2 2787.8,-859.2 2787.8,-813.2 1639.13,-813.2"/>
<polygon fill="none" stroke="black" points="1639.13,-813.2 1639.13,-859.2 2787.8,-859.2 2787.8,-813.2 1639.13,-813.2"/>
<text text-anchor="start" x="2102.98" y="-837" font-family="Arial Bold" font-size="18.00">public.clients</text>
<text text-anchor="start" x="2199.46" y="-837" font-family="Arial" font-size="14.00">    </text>
<text text-anchor="start" x="2230.57" y="-837" font-family="Arial" font-size="14.00" fill="#666666">[BASE TABLE]</text>
<text text-anchor="start" x="1646.13" y="-822.6" font-family="Arial" font-size="14.00" fill="#333333">Spa clients (no auth accounts). no_show_count is maintained by trigger from appointment status changes. flags is an extensible jsonb for operational booleans (requires_card_on_file).</text>
<polygon fill="none" stroke="black" points="1639.13,-782.4 1639.13,-813.2 2787.8,-813.2 2787.8,-782.4 1639.13,-782.4"/>
<text text-anchor="start" x="1646.13" y="-794.6" font-family="Arial" font-size="14.00">id </text>
<text text-anchor="start" x="1660.92" y="-794.6" font-family="Arial" font-size="14.00" fill="#666666">[uuid]</text>
<polygon fill="none" stroke="black" points="1639.13,-751.6 1639.13,-782.4 2787.8,-782.4 2787.8,-751.6 1639.13,-751.6"/>
<text text-anchor="start" x="1646.13" y="-763.8" font-family="Arial" font-size="14.00">organization_id </text>
<text text-anchor="start" x="1744.98" y="-763.8" font-family="Arial" font-size="14.00" fill="#666666">[uuid]</text>
<polygon fill="none" stroke="black" points="1639.13,-720.8 1639.13,-751.6 2787.8,-751.6 2787.8,-720.8 1639.13,-720.8"/>
<text text-anchor="start" x="1646.13" y="-733" font-family="Arial" font-size="14.00">first_name </text>
<text text-anchor="start" x="1715.38" y="-733" font-family="Arial" font-size="14.00" fill="#666666">[text]</text>
<polygon fill="none" stroke="black" points="1639.13,-690 1639.13,-720.8 2787.8,-720.8 2787.8,-690 1639.13,-690"/>
<text text-anchor="start" x="1646.13" y="-702.2" font-family="Arial" font-size="14.00">last_name </text>
<text text-anchor="start" x="1714.61" y="-702.2" font-family="Arial" font-size="14.00" fill="#666666">[text]</text>
<polygon fill="none" stroke="black" points="1639.13,-659.2 1639.13,-690 2787.8,-690 2787.8,-659.2 1639.13,-659.2"/>
<text text-anchor="start" x="1646.13" y="-671.4" font-family="Arial" font-size="14.00">email </text>
<text text-anchor="start" x="1683.48" y="-671.4" font-family="Arial" font-size="14.00" fill="#666666">[text]</text>
<polygon fill="none" stroke="black" points="1639.13,-628.4 1639.13,-659.2 2787.8,-659.2 2787.8,-628.4 1639.13,-628.4"/>
<text text-anchor="start" x="1646.13" y="-640.6" font-family="Arial" font-size="14.00">phone </text>
<text text-anchor="start" x="1688.95" y="-640.6" font-family="Arial" font-size="14.00" fill="#666666">[text]</text>
<polygon fill="none" stroke="black" points="1639.13,-597.6 1639.13,-628.4 2787.8,-628.4 2787.8,-597.6 1639.13,-597.6"/>
<text text-anchor="start" x="1646.13" y="-609.8" font-family="Arial" font-size="14.00">date_of_birth </text>
<text text-anchor="start" x="1731.75" y="-609.8" font-family="Arial" font-size="14.00" fill="#666666">[date]</text>
<polygon fill="none" stroke="black" points="1639.13,-566.8 1639.13,-597.6 2787.8,-597.6 2787.8,-566.8 1639.13,-566.8"/>
<text text-anchor="start" x="1646.13" y="-579" font-family="Arial" font-size="14.00">referral_source </text>
<text text-anchor="start" x="1744.17" y="-579" font-family="Arial" font-size="14.00" fill="#666666">[text]</text>
<polygon fill="none" stroke="black" points="1639.13,-536 1639.13,-566.8 2787.8,-566.8 2787.8,-536 1639.13,-536"/>
<text text-anchor="start" x="1646.13" y="-548.2" font-family="Arial" font-size="14.00">no_show_count </text>
<text text-anchor="start" x="1748.1" y="-548.2" font-family="Arial" font-size="14.00" fill="#666666">[integer]</text>
<polygon fill="none" stroke="black" points="1639.13,-505.2 1639.13,-536 2787.8,-536 2787.8,-505.2 1639.13,-505.2"/>
<text text-anchor="start" x="1646.13" y="-517.4" font-family="Arial" font-size="14.00">flags </text>
<text text-anchor="start" x="1679.59" y="-517.4" font-family="Arial" font-size="14.00" fill="#666666">[jsonb]</text>
<text text-anchor="start" x="1720.84" y="-517.4" font-family="Arial" font-size="14.00"> Operational booleans, extendable without migrations. Known keys: requires_card_on_file</text>
<polygon fill="none" stroke="black" points="1639.13,-474.4 1639.13,-505.2 2787.8,-505.2 2787.8,-474.4 1639.13,-474.4"/>
<text text-anchor="start" x="1646.13" y="-486.6" font-family="Arial" font-size="14.00">active </text>
<text text-anchor="start" x="1686.59" y="-486.6" font-family="Arial" font-size="14.00" fill="#666666">[boolean]</text>
<polygon fill="none" stroke="black" points="1639.13,-443.6 1639.13,-474.4 2787.8,-474.4 2787.8,-443.6 1639.13,-443.6"/>
<text text-anchor="start" x="1646.13" y="-455.8" font-family="Arial" font-size="14.00">created_at </text>
<text text-anchor="start" x="1716.18" y="-455.8" font-family="Arial" font-size="14.00" fill="#666666">[timestamp with time zone]</text>
<polygon fill="none" stroke="black" points="1639.13,-412.8 1639.13,-443.6 2787.8,-443.6 2787.8,-412.8 1639.13,-412.8"/>
<text text-anchor="start" x="1646.13" y="-425" font-family="Arial" font-size="14.00">updated_at </text>
<text text-anchor="start" x="1720.09" y="-425" font-family="Arial" font-size="14.00" fill="#666666">[timestamp with time zone]</text>
<polygon fill="none" stroke="black" points="1639.13,-382 1639.13,-412.8 2787.8,-412.8 2787.8,-382 1639.13,-382"/>
<text text-anchor="start" x="1646.13" y="-394.2" font-family="Arial" font-size="14.00">pronouns </text>
<text text-anchor="start" x="1708.4" y="-394.2" font-family="Arial" font-size="14.00" fill="#666666">[text]</text>
<polygon fill="none" stroke="black" points="1639.13,-351.2 1639.13,-382 2787.8,-382 2787.8,-351.2 1639.13,-351.2"/>
<text text-anchor="start" x="1646.13" y="-363.4" font-family="Arial" font-size="14.00">address_line1 </text>
<text text-anchor="start" x="1737.19" y="-363.4" font-family="Arial" font-size="14.00" fill="#666666">[text]</text>
<polygon fill="none" stroke="black" points="1639.13,-320.4 1639.13,-351.2 2787.8,-351.2 2787.8,-320.4 1639.13,-320.4"/>
<text text-anchor="start" x="1646.13" y="-332.6" font-family="Arial" font-size="14.00">address_line2 </text>
<text text-anchor="start" x="1737.19" y="-332.6" font-family="Arial" font-size="14.00" fill="#666666">[text]</text>
<polygon fill="none" stroke="black" points="1639.13,-289.6 1639.13,-320.4 2787.8,-320.4 2787.8,-289.6 1639.13,-289.6"/>
<text text-anchor="start" x="1646.13" y="-301.8" font-family="Arial" font-size="14.00">city </text>
<text text-anchor="start" x="1671.02" y="-301.8" font-family="Arial" font-size="14.00" fill="#666666">[text]</text>
<polygon fill="none" stroke="black" points="1639.13,-258.8 1639.13,-289.6 2787.8,-289.6 2787.8,-258.8 1639.13,-258.8"/>
<text text-anchor="start" x="1646.13" y="-271" font-family="Arial" font-size="14.00">state </text>
<text text-anchor="start" x="1680.37" y="-271" font-family="Arial" font-size="14.00" fill="#666666">[text]</text>
<polygon fill="none" stroke="black" points="1639.13,-228 1639.13,-258.8 2787.8,-258.8 2787.8,-228 1639.13,-228"/>
<text text-anchor="start" x="1646.13" y="-240.2" font-family="Arial" font-size="14.00">postal_code </text>
<text text-anchor="start" x="1725.52" y="-240.2" font-family="Arial" font-size="14.00" fill="#666666">[text]</text>
<polygon fill="none" stroke="black" points="1639.13,-197.2 1639.13,-228 2787.8,-228 2787.8,-197.2 1639.13,-197.2"/>
<text text-anchor="start" x="1646.13" y="-209.4" font-family="Arial" font-size="14.00">emergency_contact_name </text>
<text text-anchor="start" x="1815.01" y="-209.4" font-family="Arial" font-size="14.00" fill="#666666">[text]</text>
<polygon fill="none" stroke="black" points="1639.13,-166.4 1639.13,-197.2 2787.8,-197.2 2787.8,-166.4 1639.13,-166.4"/>
<text text-anchor="start" x="1646.13" y="-178.6" font-family="Arial" font-size="14.00">emergency_contact_phone </text>
<text text-anchor="start" x="1818.92" y="-178.6" font-family="Arial" font-size="14.00" fill="#666666">[text]</text>
<polygon fill="none" stroke="black" points="1639.13,-135.6 1639.13,-166.4 2787.8,-166.4 2787.8,-135.6 1639.13,-135.6"/>
<text text-anchor="start" x="1646.13" y="-147.8" font-family="Arial" font-size="14.00">preferred_contact_method </text>
<text text-anchor="start" x="1814.23" y="-147.8" font-family="Arial" font-size="14.00" fill="#666666">[text]</text>
<polygon fill="none" stroke="black" points="1639.13,-104.8 1639.13,-135.6 2787.8,-135.6 2787.8,-104.8 1639.13,-104.8"/>
<text text-anchor="start" x="1646.13" y="-117" font-family="Arial" font-size="14.00">marketing_opt_in </text>
<text text-anchor="start" x="1757.42" y="-117" font-family="Arial" font-size="14.00" fill="#666666">[boolean]</text>
<polygon fill="none" stroke="black" points="1639.13,-74 1639.13,-104.8 2787.8,-104.8 2787.8,-74 1639.13,-74"/>
<text text-anchor="start" x="1646.13" y="-86.2" font-family="Arial" font-size="14.00">marketing_opt_in_at </text>
<text text-anchor="start" x="1776.88" y="-86.2" font-family="Arial" font-size="14.00" fill="#666666">[timestamp with time zone]</text>
<polygon fill="none" stroke="black" points="1639.13,-43.2 1639.13,-74 2787.8,-74 2787.8,-43.2 1639.13,-43.2"/>
<text text-anchor="start" x="1646.13" y="-55.4" font-family="Arial" font-size="14.00">preferred_staff_id </text>
<text text-anchor="start" x="1759.75" y="-55.4" font-family="Arial" font-size="14.00" fill="#666666">[uuid]</text>
</g>
<!-- public.gift_cards&#45;&gt;public.clients -->
<g id="edge4" class="edge">
<title>public.gift_cards:purchaser_client_id&#45;&gt;public.clients:id</title>
<path fill="none" stroke="black" d="M2211.66,-1122.52C2281.44,-1112.57 2254.59,-995.59 2200.66,-938.4 2114.88,-847.43 1725.11,-993.19 1639.13,-902.4 1607.17,-868.64 1591.64,-797.8 1638.13,-797.8"/>
<polygon fill="black" stroke="black" points="2211.98,-1122.5 2201.69,-1118.69 2206.65,-1122.86 2202.33,-1123.15 2202.33,-1123.15 2202.33,-1123.15 2206.65,-1122.86 2202.3,-1127.67 2211.98,-1122.5"/>
<text text-anchor="start" x="2208.66" y="-1133.2" font-family="Arial" font-size="10.00">FOREIGN KEY (purchaser_client_id) REFERENCES clients(id)</text>
</g>
<!-- public.transaction_items -->
<g id="node2" class="node">
<title>public.transaction_items</title>
<polygon fill="#efefef" stroke="none" points="43.2,-1895.2 43.2,-1941.2 1761.73,-1941.2 1761.73,-1895.2 43.2,-1895.2"/>
<polygon fill="none" stroke="black" points="43.2,-1895.2 43.2,-1941.2 1761.73,-1941.2 1761.73,-1895.2 43.2,-1895.2"/>
<text text-anchor="start" x="751.99" y="-1919" font-family="Arial Bold" font-size="18.00">public.transaction_items</text>
<text text-anchor="start" x="928.45" y="-1919" font-family="Arial" font-size="14.00">    </text>
<text text-anchor="start" x="959.57" y="-1919" font-family="Arial" font-size="14.00" fill="#666666">[BASE TABLE]</text>
<text text-anchor="start" x="50.2" y="-1904.6" font-family="Arial" font-size="14.00" fill="#333333">Line items with name/price SNAPSHOTS (catalog edits never rewrite sold history). kind=service carries appointment + staff attribution; kind=tip carries staff attribution for payroll reads; kind=discount is negative; kind=gift_card is a liability sale, excluded from revenue reporting.</text>
<polygon fill="none" stroke="black" points="43.2,-1864.4 43.2,-1895.2 1761.73,-1895.2 1761.73,-1864.4 43.2,-1864.4"/>
<text text-anchor="start" x="50.2" y="-1876.6" font-family="Arial" font-size="14.00">id </text>
<text text-anchor="start" x="64.99" y="-1876.6" font-family="Arial" font-size="14.00" fill="#666666">[uuid]</text>
<polygon fill="none" stroke="black" points="43.2,-1833.6 43.2,-1864.4 1761.73,-1864.4 1761.73,-1833.6 43.2,-1833.6"/>
<text text-anchor="start" x="50.2" y="-1845.8" font-family="Arial" font-size="14.00">transaction_id </text>
<text text-anchor="start" x="141.25" y="-1845.8" font-family="Arial" font-size="14.00" fill="#666666">[uuid]</text>
<polygon fill="none" stroke="black" points="43.2,-1802.8 43.2,-1833.6 1761.73,-1833.6 1761.73,-1802.8 43.2,-1802.8"/>
<text text-anchor="start" x="50.2" y="-1815" font-family="Arial" font-size="14.00">kind </text>
<text text-anchor="start" x="79.77" y="-1815" font-family="Arial" font-size="14.00" fill="#666666">[text]</text>
<polygon fill="none" stroke="black" points="43.2,-1772 43.2,-1802.8 1761.73,-1802.8 1761.73,-1772 43.2,-1772"/>
<text text-anchor="start" x="50.2" y="-1784.2" font-family="Arial" font-size="14.00">appointment_id </text>
<text text-anchor="start" x="149.83" y="-1784.2" font-family="Arial" font-size="14.00" fill="#666666">[uuid]</text>
<polygon fill="none" stroke="black" points="43.2,-1741.2 43.2,-1772 1761.73,-1772 1761.73,-1741.2 43.2,-1741.2"/>
<text text-anchor="start" x="50.2" y="-1753.4" font-family="Arial" font-size="14.00">product_id </text>
<text text-anchor="start" x="119.47" y="-1753.4" font-family="Arial" font-size="14.00" fill="#666666">[uuid]</text>
<polygon fill="none" stroke="black" points="43.2,-1710.4 43.2,-1741.2 1761.73,-1741.2 1761.73,-1710.4 43.2,-1710.4"/>
<text text-anchor="start" x="50.2" y="-1722.6" font-family="Arial" font-size="14.00">gift_card_id </text>
<text text-anchor="start" x="126.47" y="-1722.6" font-family="Arial" font-size="14.00" fill="#666666">[uuid]</text>
<polygon fill="none" stroke="black" points="43.2,-1679.6 43.2,-1710.4 1761.73,-1710.4 1761.73,-1679.6 43.2,-1679.6"/>
<text text-anchor="start" x="50.2" y="-1691.8" font-family="Arial" font-size="14.00">staff_id </text>
<text text-anchor="start" x="99.23" y="-1691.8" font-family="Arial" font-size="14.00" fill="#666666">[uuid]</text>
<polygon fill="none" stroke="black" points="43.2,-1648.8 43.2,-1679.6 1761.73,-1679.6 1761.73,-1648.8 43.2,-1648.8"/>
<text text-anchor="start" x="50.2" y="-1661" font-family="Arial" font-size="14.00">name_snapshot </text>
<text text-anchor="start" x="153.72" y="-1661" font-family="Arial" font-size="14.00" fill="#666666">[text]</text>
<polygon fill="none" stroke="black" points="43.2,-1618 43.2,-1648.8 1761.73,-1648.8 1761.73,-1618 43.2,-1618"/>
<text text-anchor="start" x="50.2" y="-1630.2" font-family="Arial" font-size="14.00">quantity </text>
<text text-anchor="start" x="103.12" y="-1630.2" font-family="Arial" font-size="14.00" fill="#666666">[integer]</text>
<polygon fill="none" stroke="black" points="43.2,-1587.2 43.2,-1618 1761.73,-1618 1761.73,-1587.2 43.2,-1587.2"/>
<text text-anchor="start" x="50.2" y="-1599.4" font-family="Arial" font-size="14.00">unit_price_cents </text>
<text text-anchor="start" x="156.04" y="-1599.4" font-family="Arial" font-size="14.00" fill="#666666">[integer]</text>
<polygon fill="none" stroke="black" points="43.2,-1556.4 43.2,-1587.2 1761.73,-1587.2 1761.73,-1556.4 43.2,-1556.4"/>
<text text-anchor="start" x="50.2" y="-1568.6" font-family="Arial" font-size="14.00">taxable </text>
<text text-anchor="start" x="99.23" y="-1568.6" font-family="Arial" font-size="14.00" fill="#666666">[boolean]</text>
<polygon fill="none" stroke="black" points="43.2,-1525.6 43.2,-1556.4 1761.73,-1556.4 1761.73,-1525.6 43.2,-1525.6"/>
<text text-anchor="start" x="50.2" y="-1537.8" font-family="Arial" font-size="14.00">tax_cents </text>
<text text-anchor="start" x="114.01" y="-1537.8" font-family="Arial" font-size="14.00" fill="#666666">[integer]</text>
<polygon fill="none" stroke="black" points="43.2,-1494.8 43.2,-1525.6 1761.73,-1525.6 1761.73,-1494.8 43.2,-1494.8"/>
<text text-anchor="start" x="50.2" y="-1507" font-family="Arial" font-size="14.00">total_cents </text>
<text text-anchor="start" x="121.8" y="-1507" font-family="Arial" font-size="14.00" fill="#666666">[integer]</text>
<polygon fill="none" stroke="black" points="43.2,-1464 43.2,-1494.8 1761.73,-1494.8 1761.73,-1464 43.2,-1464"/>
<text text-anchor="start" x="50.2" y="-1476.2" font-family="Arial" font-size="14.00">discount_reason </text>
<text text-anchor="start" x="156.83" y="-1476.2" font-family="Arial" font-size="14.00" fill="#666666">[text]</text>
</g>
<!-- public.transaction_items&#45;&gt;public.gift_cards -->
<g id="edge1" class="edge">
<title>public.transaction_items:gift_card_id&#45;&gt;public.gift_cards:id</title>
<path fill="none" stroke="black" d="M1772.71,-1723.74C1828.07,-1699.42 1805.64,-1467.64 1761.73,-1420.8 1680.76,-1334.45 1311.49,-1470.91 1230.26,-1384.8 1197.45,-1350.01 1181.44,-1277.2 1229.26,-1277.2"/>
<polygon fill="black" stroke="black" points="1772.85,-1723.71 1762.14,-1721.33 1767.62,-1724.79 1763.38,-1725.66 1763.38,-1725.66 1763.38,-1725.66 1767.62,-1724.79 1763.97,-1730.14 1772.85,-1723.71"/>
<text text-anchor="start" x="1769.73" y="-1735.8" font-family="Arial" font-size="10.00">FOREIGN KEY (gift_card_id) REFERENCES gift_cards(id)</text>
</g>
<!-- public.payments -->
<g id="node3" class="node">
<title>public.payments</title>
<polygon fill="#efefef" stroke="none" points="1866.58,-1787.4 1866.58,-1833.4 3192.35,-1833.4 3192.35,-1787.4 1866.58,-1787.4"/>
<polygon fill="none" stroke="black" points="1866.58,-1787.4 1866.58,-1833.4 3192.35,-1833.4 3192.35,-1787.4 1866.58,-1787.4"/>
<text text-anchor="start" x="2407.98" y="-1811.2" font-family="Arial Bold" font-size="18.00">public.payments</text>
<text text-anchor="start" x="2526.46" y="-1811.2" font-family="Arial" font-size="14.00">    </text>
<text text-anchor="start" x="2557.57" y="-1811.2" font-family="Arial" font-size="14.00" fill="#666666">[BASE TABLE]</text>
<text text-anchor="start" x="1873.58" y="-1796.8" font-family="Arial" font-size="14.00" fill="#333333">How each transaction settled. Multiple rows = split tender (&quot;$80 gift card + rest on card&quot;). card_external = charged on the spa&#39;s existing physical terminal and recorded here; in&#45;app charging arrives with Stripe (4b).</text>
<polygon fill="none" stroke="black" points="1866.58,-1756.6 1866.58,-1787.4 3192.35,-1787.4 3192.35,-1756.6 1866.58,-1756.6"/>
<text text-anchor="start" x="1873.58" y="-1768.8" font-family="Arial" font-size="14.00">id </text>
<text text-anchor="start" x="1888.36" y="-1768.8" font-family="Arial" font-size="14.00" fill="#666666">[uuid]</text>
<polygon fill="none" stroke="black" points="1866.58,-1725.8 1866.58,-1756.6 3192.35,-1756.6 3192.35,-1725.8 1866.58,-1725.8"/>
<text text-anchor="start" x="1873.58" y="-1738" font-family="Arial" font-size="14.00">transaction_id </text>
<text text-anchor="start" x="1964.63" y="-1738" font-family="Arial" font-size="14.00" fill="#666666">[uuid]</text>
<polygon fill="none" stroke="black" points="1866.58,-1695 1866.58,-1725.8 3192.35,-1725.8 3192.35,-1695 1866.58,-1695"/>
<text text-anchor="start" x="1873.58" y="-1707.2" font-family="Arial" font-size="14.00">method </text>
<text text-anchor="start" x="1924.16" y="-1707.2" font-family="Arial" font-size="14.00" fill="#666666">[text]</text>
<polygon fill="none" stroke="black" points="1866.58,-1664.2 1866.58,-1695 3192.35,-1695 3192.35,-1664.2 1866.58,-1664.2"/>
<text text-anchor="start" x="1873.58" y="-1676.4" font-family="Arial" font-size="14.00">amount_cents </text>
<text text-anchor="start" x="1965.41" y="-1676.4" font-family="Arial" font-size="14.00" fill="#666666">[integer]</text>
<polygon fill="none" stroke="black" points="1866.58,-1633.4 1866.58,-1664.2 3192.35,-1664.2 3192.35,-1633.4 1866.58,-1633.4"/>
<text text-anchor="start" x="1873.58" y="-1645.6" font-family="Arial" font-size="14.00">gift_card_id </text>
<text text-anchor="start" x="1949.84" y="-1645.6" font-family="Arial" font-size="14.00" fill="#666666">[uuid]</text>
<polygon fill="none" stroke="black" points="1866.58,-1602.6 1866.58,-1633.4 3192.35,-1633.4 3192.35,-1602.6 1866.58,-1602.6"/>
<text text-anchor="start" x="1873.58" y="-1614.8" font-family="Arial" font-size="14.00">reference </text>
<text text-anchor="start" x="1936.61" y="-1614.8" font-family="Arial" font-size="14.00" fill="#666666">[text]</text>
<polygon fill="none" stroke="black" points="1866.58,-1571.8 1866.58,-1602.6 3192.35,-1602.6 3192.35,-1571.8 1866.58,-1571.8"/>
<text text-anchor="start" x="1873.58" y="-1584" font-family="Arial" font-size="14.00">created_at </text>
<text text-anchor="start" x="1943.62" y="-1584" font-family="Arial" font-size="14.00" fill="#666666">[timestamp with time zone]</text>
</g>
<!-- public.payments&#45;&gt;public.gift_cards -->
<g id="edge2" class="edge">
<title>public.payments:gift_card_id&#45;&gt;public.gift_cards:id</title>
<path fill="none" stroke="black" d="M1855.44,-1647.71C1815.67,-1638.31 1839.09,-1569.97 1866.58,-1528.6 1956.02,-1393.95 2111.15,-1519.41 2200.66,-1384.8 2227.15,-1344.98 2249.49,-1277.2 2201.66,-1277.2"/>
<polygon fill="black" stroke="black" points="1855.3,-1647.7 1864.76,-1653.24 1860.6,-1648.27 1864.91,-1648.73 1864.91,-1648.73 1864.91,-1648.73 1860.6,-1648.27 1865.72,-1644.29 1855.3,-1647.7"/>
<text text-anchor="start" x="1872.58" y="-1658.8" font-family="Arial" font-size="10.00">FOREIGN KEY (gift_card_id) REFERENCES gift_cards(id)</text>
</g>
</g>
</svg>
