<?xml version="1.0" encoding="UTF-8" standalone="no"?>
<!DOCTYPE svg PUBLIC "-//W3C//DTD SVG 1.1//EN"
 "http://www.w3.org/Graphics/SVG/1.1/DTD/svg11.dtd">
<!-- Generated by graphviz version 12.1.2 (20240928.0832)
 -->
<!-- Title: public.service_categories Pages: 1 -->
<svg width="1567pt" height="1192pt"
 viewBox="0.00 0.00 1566.60 1191.60" xmlns="http://www.w3.org/2000/svg" xmlns:xlink="http://www.w3.org/1999/xlink">
<g id="graph0" class="graph" transform="scale(1 1) rotate(0) translate(4 1187.6)">
<title>public.service_categories</title>
<polygon fill="white" stroke="none" points="-4,4 -4,-1187.6 1562.6,-1187.6 1562.6,4 -4,4"/>
<!-- public.service_categories -->
<g id="node1" class="node">
<title>public.service_categories</title>
<polygon fill="#efefef" stroke="none" points="482.35,-522.6 482.35,-568.6 803.25,-568.6 803.25,-522.6 482.35,-522.6"/>
<polygon fill="none" stroke="black" points="482.35,-522.6 482.35,-568.6 803.25,-568.6 803.25,-522.6 482.35,-522.6"/>
<text text-anchor="start" x="489.35" y="-546.4" font-family="Arial Bold" font-size="18.00">public.service_categories</text>
<text text-anchor="start" x="671.76" y="-546.4" font-family="Arial" font-size="14.00">    </text>
<text text-anchor="start" x="702.88" y="-546.4" font-family="Arial" font-size="14.00" fill="#666666">[BASE TABLE]</text>
<text text-anchor="start" x="523.36" y="-532" font-family="Arial" font-size="14.00" fill="#333333">Menu grouping (Massage, Facials, ...).</text>
<polygon fill="none" stroke="black" points="482.35,-491.8 482.35,-522.6 803.25,-522.6 803.25,-491.8 482.35,-491.8"/>
<text text-anchor="start" x="489.35" y="-504" font-family="Arial" font-size="14.00">id </text>
<text text-anchor="start" x="504.13" y="-504" font-family="Arial" font-size="14.00" fill="#666666">[uuid]</text>
<polygon fill="none" stroke="black" points="482.35,-461 482.35,-491.8 803.25,-491.8 803.25,-461 482.35,-461"/>
<text text-anchor="start" x="489.35" y="-473.2" font-family="Arial" font-size="14.00">organization_id </text>
<text text-anchor="start" x="588.2" y="-473.2" font-family="Arial" font-size="14.00" fill="#666666">[uuid]</text>
<polygon fill="none" stroke="black" points="482.35,-430.2 482.35,-461 803.25,-461 803.25,-430.2 482.35,-430.2"/>
<text text-anchor="start" x="489.35" y="-442.4" font-family="Arial" font-size="14.00">name </text>
<text text-anchor="start" x="528.26" y="-442.4" font-family="Arial" font-size="14.00" fill="#666666">[text]</text>
<polygon fill="none" stroke="black" points="482.35,-399.4 482.35,-430.2 803.25,-430.2 803.25,-399.4 482.35,-399.4"/>
<text text-anchor="start" x="489.35" y="-411.6" font-family="Arial" font-size="14.00">sort_order </text>
<text text-anchor="start" x="557.04" y="-411.6" font-family="Arial" font-size="14.00" fill="#666666">[integer]</text>
<polygon fill="none" stroke="black" points="482.35,-368.6 482.35,-399.4 803.25,-399.4 803.25,-368.6 482.35,-368.6"/>
<text text-anchor="start" x="489.35" y="-380.8" font-family="Arial" font-size="14.00">created_at </text>
<text text-anchor="start" x="559.4" y="-380.8" font-family="Arial" font-size="14.00" fill="#666666">[timestamp with time zone]</text>
<polygon fill="none" stroke="black" stroke-width="3" points="480.85,-367.1 480.85,-570.1 804.75,-570.1 804.75,-367.1 480.85,-367.1"/>
</g>
<!-- public.organizations -->
<g id="node3" class="node">
<title>public.organizations</title>
<polygon fill="#efefef" stroke="none" points="325.68,-197.2 325.68,-243.2 959.92,-243.2 959.92,-197.2 325.68,-197.2"/>
<polygon fill="none" stroke="black" points="325.68,-197.2 325.68,-243.2 959.92,-243.2 959.92,-197.2 325.68,-197.2"/>
<text text-anchor="start" x="507.33" y="-221" font-family="Arial Bold" font-size="18.00">public.organizations</text>
<text text-anchor="start" x="653.79" y="-221" font-family="Arial" font-size="14.00">    </text>
<text text-anchor="start" x="684.9" y="-221" font-family="Arial" font-size="14.00" fill="#666666">[BASE TABLE]</text>
<text text-anchor="start" x="332.68" y="-206.6" font-family="Arial" font-size="14.00" fill="#333333">Tenant root. Single row today; every domain table hangs off organization_id for future multi&#45;tenancy.</text>
<polygon fill="none" stroke="black" points="325.68,-166.4 325.68,-197.2 959.92,-197.2 959.92,-166.4 325.68,-166.4"/>
<text text-anchor="start" x="332.68" y="-178.6" font-family="Arial" font-size="14.00">id </text>
<text text-anchor="start" x="347.47" y="-178.6" font-family="Arial" font-size="14.00" fill="#666666">[uuid]</text>
<polygon fill="none" stroke="black" points="325.68,-135.6 325.68,-166.4 959.92,-166.4 959.92,-135.6 325.68,-135.6"/>
<text text-anchor="start" x="332.68" y="-147.8" font-family="Arial" font-size="14.00">name </text>
<text text-anchor="start" x="371.59" y="-147.8" font-family="Arial" font-size="14.00" fill="#666666">[text]</text>
<polygon fill="none" stroke="black" points="325.68,-104.8 325.68,-135.6 959.92,-135.6 959.92,-104.8 325.68,-104.8"/>
<text text-anchor="start" x="332.68" y="-117" font-family="Arial" font-size="14.00">timezone </text>
<text text-anchor="start" x="393.38" y="-117" font-family="Arial" font-size="14.00" fill="#666666">[text]</text>
<polygon fill="none" stroke="black" points="325.68,-74 325.68,-104.8 959.92,-104.8 959.92,-74 325.68,-74"/>
<text text-anchor="start" x="332.68" y="-86.2" font-family="Arial" font-size="14.00">branding </text>
<text text-anchor="start" x="391.06" y="-86.2" font-family="Arial" font-size="14.00" fill="#666666">[jsonb]</text>
<polygon fill="none" stroke="black" points="325.68,-43.2 325.68,-74 959.92,-74 959.92,-43.2 325.68,-43.2"/>
<text text-anchor="start" x="332.68" y="-55.4" font-family="Arial" font-size="14.00">created_at </text>
<text text-anchor="start" x="402.73" y="-55.4" font-family="Arial" font-size="14.00" fill="#666666">[timestamp with time zone]</text>
</g>
<!-- public.service_categories&#45;&gt;public.organizations -->
<g id="edge2" class="edge">
<title>public.service_categories:organization_id&#45;&gt;public.organizations:id</title>
<path fill="none" stroke="black" d="M814.26,-475.96C959.43,-463.31 1105.89,-181.8 960.92,-181.8"/>
<polygon fill="black" stroke="black" points="814.58,-475.95 804.39,-471.89 809.25,-476.18 804.92,-476.37 804.92,-476.37 804.92,-476.37 809.25,-476.18 804.79,-480.88 814.58,-475.95"/>
<text text-anchor="start" x="811.25" y="-486.4" font-family="Arial" font-size="10.00">FOREIGN KEY (organization_id) REFERENCES organizations(id)</text>
</g>
<!-- public.services -->
<g id="node2" class="node">
<title>public.services</title>
<polygon fill="#efefef" stroke="none" points="43.2,-1094.4 43.2,-1140.4 1242.4,-1140.4 1242.4,-1094.4 43.2,-1094.4"/>
<polygon fill="none" stroke="black" points="43.2,-1094.4 43.2,-1140.4 1242.4,-1140.4 1242.4,-1094.4 43.2,-1094.4"/>
<text text-anchor="start" x="526.82" y="-1118.2" font-family="Arial Bold" font-size="18.00">public.services</text>
<text text-anchor="start" x="634.29" y="-1118.2" font-family="Arial" font-size="14.00">    </text>
<text text-anchor="start" x="665.41" y="-1118.2" font-family="Arial" font-size="14.00" fill="#666666">[BASE TABLE]</text>
<text text-anchor="start" x="50.2" y="-1103.8" font-family="Arial" font-size="14.00" fill="#333333">The treatment catalog. duration_minutes is client&#45;facing; buffers extend the blocked window. Prices in cents. requires_intake gates booking once intake forms exist. Deactivated, never deleted.</text>
<polygon fill="none" stroke="black" points="43.2,-1063.6 43.2,-1094.4 1242.4,-1094.4 1242.4,-1063.6 43.2,-1063.6"/>
<text text-anchor="start" x="50.2" y="-1075.8" font-family="Arial" font-size="14.00">id </text>
<text text-anchor="start" x="64.99" y="-1075.8" font-family="Arial" font-size="14.00" fill="#666666">[uuid]</text>
<polygon fill="none" stroke="black" points="43.2,-1032.8 43.2,-1063.6 1242.4,-1063.6 1242.4,-1032.8 43.2,-1032.8"/>
<text text-anchor="start" x="50.2" y="-1045" font-family="Arial" font-size="14.00">organization_id </text>
<text text-anchor="start" x="149.05" y="-1045" font-family="Arial" font-size="14.00" fill="#666666">[uuid]</text>
<polygon fill="none" stroke="black" points="43.2,-1002 43.2,-1032.8 1242.4,-1032.8 1242.4,-1002 43.2,-1002"/>
<text text-anchor="start" x="50.2" y="-1014.2" font-family="Arial" font-size="14.00">category_id </text>
<text text-anchor="start" x="126.47" y="-1014.2" font-family="Arial" font-size="14.00" fill="#666666">[uuid]</text>
<polygon fill="none" stroke="black" points="43.2,-971.2 43.2,-1002 1242.4,-1002 1242.4,-971.2 43.2,-971.2"/>
<text text-anchor="start" x="50.2" y="-983.4" font-family="Arial" font-size="14.00">name </text>
<text text-anchor="start" x="89.11" y="-983.4" font-family="Arial" font-size="14.00" fill="#666666">[text]</text>
<polygon fill="none" stroke="black" points="43.2,-940.4 43.2,-971.2 1242.4,-971.2 1242.4,-940.4 43.2,-940.4"/>
<text text-anchor="start" x="50.2" y="-952.6" font-family="Arial" font-size="14.00">description </text>
<text text-anchor="start" x="121.79" y="-952.6" font-family="Arial" font-size="14.00" fill="#666666">[text]</text>
<polygon fill="none" stroke="black" points="43.2,-909.6 43.2,-940.4 1242.4,-940.4 1242.4,-909.6 43.2,-909.6"/>
<text text-anchor="start" x="50.2" y="-921.8" font-family="Arial" font-size="14.00">duration_minutes </text>
<text text-anchor="start" x="161.49" y="-921.8" font-family="Arial" font-size="14.00" fill="#666666">[integer]</text>
<polygon fill="none" stroke="black" points="43.2,-878.8 43.2,-909.6 1242.4,-909.6 1242.4,-878.8 43.2,-878.8"/>
<text text-anchor="start" x="50.2" y="-891" font-family="Arial" font-size="14.00">buffer_before_min </text>
<text text-anchor="start" x="167.72" y="-891" font-family="Arial" font-size="14.00" fill="#666666">[integer]</text>
<polygon fill="none" stroke="black" points="43.2,-848 43.2,-878.8 1242.4,-878.8 1242.4,-848 43.2,-848"/>
<text text-anchor="start" x="50.2" y="-860.2" font-family="Arial" font-size="14.00">buffer_after_min </text>
<text text-anchor="start" x="156.03" y="-860.2" font-family="Arial" font-size="14.00" fill="#666666">[integer]</text>
<text text-anchor="start" x="206.62" y="-860.2" font-family="Arial" font-size="14.00"> Cleanup/reset time appended to the blocked window; invisible to the client&#45;facing times.</text>
<polygon fill="none" stroke="black" points="43.2,-817.2 43.2,-848 1242.4,-848 1242.4,-817.2 43.2,-817.2"/>
<text text-anchor="start" x="50.2" y="-829.4" font-family="Arial" font-size="14.00">price_cents </text>
<text text-anchor="start" x="125.68" y="-829.4" font-family="Arial" font-size="14.00" fill="#666666">[integer]</text>
<polygon fill="none" stroke="black" points="43.2,-786.4 43.2,-817.2 1242.4,-817.2 1242.4,-786.4 43.2,-786.4"/>
<text text-anchor="start" x="50.2" y="-798.6" font-family="Arial" font-size="14.00">requires_intake </text>
<text text-anchor="start" x="149.81" y="-798.6" font-family="Arial" font-size="14.00" fill="#666666">[boolean]</text>
<polygon fill="none" stroke="black" points="43.2,-755.6 43.2,-786.4 1242.4,-786.4 1242.4,-755.6 43.2,-755.6"/>
<text text-anchor="start" x="50.2" y="-767.8" font-family="Arial" font-size="14.00">active </text>
<text text-anchor="start" x="90.66" y="-767.8" font-family="Arial" font-size="14.00" fill="#666666">[boolean]</text>
<polygon fill="none" stroke="black" points="43.2,-724.8 43.2,-755.6 1242.4,-755.6 1242.4,-724.8 43.2,-724.8"/>
<text text-anchor="start" x="50.2" y="-737" font-family="Arial" font-size="14.00">created_at </text>
<text text-anchor="start" x="120.25" y="-737" font-family="Arial" font-size="14.00" fill="#666666">[timestamp with time zone]</text>
<polygon fill="none" stroke="black" points="43.2,-694 43.2,-724.8 1242.4,-724.8 1242.4,-694 43.2,-694"/>
<text text-anchor="start" x="50.2" y="-706.2" font-family="Arial" font-size="14.00">updated_at </text>
<text text-anchor="start" x="124.16" y="-706.2" font-family="Arial" font-size="14.00" fill="#666666">[timestamp with time zone]</text>
</g>
<!-- public.services&#45;&gt;public.service_categories -->
<g id="edge1" class="edge">
<title>public.services:category_id&#45;&gt;public.service_categories:id</title>
<path fill="none" stroke="black" d="M1253.69,-1015.63C1321.73,-990.86 1288.14,-713.74 1242.4,-650.8 1182.17,-567.91 906.72,-507.2 804.25,-507.2"/>
<polygon fill="black" stroke="black" points="1253.59,-1015.65 1242.97,-1012.91 1248.33,-1016.55 1244.06,-1017.29 1244.06,-1017.29 1244.06,-1017.29 1248.33,-1016.55 1244.49,-1021.78 1253.59,-1015.65"/>
<text text-anchor="start" x="1250.4" y="-1027.4" font-family="Arial" font-size="10.00">FOREIGN KEY (category_id) REFERENCES service_categories(id)</text>
</g>
</g>
</svg>
