<?xml version="1.0" encoding="UTF-8" standalone="no"?>
<!DOCTYPE svg PUBLIC "-//W3C//DTD SVG 1.1//EN"
 "http://www.w3.org/Graphics/SVG/1.1/DTD/svg11.dtd">
<!-- Generated by graphviz version 12.1.2 (20240928.0832)
 -->
<!-- Title: public.services Pages: 1 -->
<svg width="2361pt" height="1253pt"
 viewBox="0.00 0.00 2361.35 1253.20" xmlns="http://www.w3.org/2000/svg" xmlns:xlink="http://www.w3.org/1999/xlink">
<g id="graph0" class="graph" transform="scale(1 1) rotate(0) translate(4 1249.2)">
<title>public.services</title>
<polygon fill="white" stroke="none" points="-4,4 -4,-1249.2 2357.35,-1249.2 2357.35,4 -4,4"/>
<!-- public.services -->
<g id="node1" class="node">
<title>public.services</title>
<polygon fill="#efefef" stroke="none" points="518.99,-769 518.99,-815 1718.19,-815 1718.19,-769 518.99,-769"/>
<polygon fill="none" stroke="black" points="518.99,-769 518.99,-815 1718.19,-815 1718.19,-769 518.99,-769"/>
<text text-anchor="start" x="1002.61" y="-792.8" font-family="Arial Bold" font-size="18.00">public.services</text>
<text text-anchor="start" x="1110.08" y="-792.8" font-family="Arial" font-size="14.00">    </text>
<text text-anchor="start" x="1141.19" y="-792.8" font-family="Arial" font-size="14.00" fill="#666666">[BASE TABLE]</text>
<text text-anchor="start" x="525.99" y="-778.4" font-family="Arial" font-size="14.00" fill="#333333">The treatment catalog. duration_minutes is client&#45;facing; buffers extend the blocked window. Prices in cents. requires_intake gates booking once intake forms exist. Deactivated, never deleted.</text>
<polygon fill="none" stroke="black" points="518.99,-738.2 518.99,-769 1718.19,-769 1718.19,-738.2 518.99,-738.2"/>
<text text-anchor="start" x="525.99" y="-750.4" font-family="Arial" font-size="14.00">id </text>
<text text-anchor="start" x="540.78" y="-750.4" font-family="Arial" font-size="14.00" fill="#666666">[uuid]</text>
<polygon fill="none" stroke="black" points="518.99,-707.4 518.99,-738.2 1718.19,-738.2 1718.19,-707.4 518.99,-707.4"/>
<text text-anchor="start" x="525.99" y="-719.6" font-family="Arial" font-size="14.00">organization_id </text>
<text text-anchor="start" x="624.84" y="-719.6" font-family="Arial" font-size="14.00" fill="#666666">[uuid]</text>
<polygon fill="none" stroke="black" points="518.99,-676.6 518.99,-707.4 1718.19,-707.4 1718.19,-676.6 518.99,-676.6"/>
<text text-anchor="start" x="525.99" y="-688.8" font-family="Arial" font-size="14.00">category_id </text>
<text text-anchor="start" x="602.26" y="-688.8" font-family="Arial" font-size="14.00" fill="#666666">[uuid]</text>
<polygon fill="none" stroke="black" points="518.99,-645.8 518.99,-676.6 1718.19,-676.6 1718.19,-645.8 518.99,-645.8"/>
<text text-anchor="start" x="525.99" y="-658" font-family="Arial" font-size="14.00">name </text>
<text text-anchor="start" x="564.9" y="-658" font-family="Arial" font-size="14.00" fill="#666666">[text]</text>
<polygon fill="none" stroke="black" points="518.99,-615 518.99,-645.8 1718.19,-645.8 1718.19,-615 518.99,-615"/>
<text text-anchor="start" x="525.99" y="-627.2" font-family="Arial" font-size="14.00">description </text>
<text text-anchor="start" x="597.58" y="-627.2" font-family="Arial" font-size="14.00" fill="#666666">[text]</text>
<polygon fill="none" stroke="black" points="518.99,-584.2 518.99,-615 1718.19,-615 1718.19,-584.2 518.99,-584.2"/>
<text text-anchor="start" x="525.99" y="-596.4" font-family="Arial" font-size="14.00">duration_minutes </text>
<text text-anchor="start" x="637.28" y="-596.4" font-family="Arial" font-size="14.00" fill="#666666">[integer]</text>
<polygon fill="none" stroke="black" points="518.99,-553.4 518.99,-584.2 1718.19,-584.2 1718.19,-553.4 518.99,-553.4"/>
<text text-anchor="start" x="525.99" y="-565.6" font-family="Arial" font-size="14.00">buffer_before_min </text>
<text text-anchor="start" x="643.51" y="-565.6" font-family="Arial" font-size="14.00" fill="#666666">[integer]</text>
<polygon fill="none" stroke="black" points="518.99,-522.6 518.99,-553.4 1718.19,-553.4 1718.19,-522.6 518.99,-522.6"/>
<text text-anchor="start" x="525.99" y="-534.8" font-family="Arial" font-size="14.00">buffer_after_min </text>
<text text-anchor="start" x="631.82" y="-534.8" font-family="Arial" font-size="14.00" fill="#666666">[integer]</text>
<text text-anchor="start" x="682.41" y="-534.8" font-family="Arial" font-size="14.00"> Cleanup/reset time appended to the blocked window; invisible to the client&#45;facing times.</text>
<polygon fill="none" stroke="black" points="518.99,-491.8 518.99,-522.6 1718.19,-522.6 1718.19,-491.8 518.99,-491.8"/>
<text text-anchor="start" x="525.99" y="-504" font-family="Arial" font-size="14.00">price_cents </text>
<text text-anchor="start" x="601.47" y="-504" font-family="Arial" font-size="14.00" fill="#666666">[integer]</text>
<polygon fill="none" stroke="black" points="518.99,-461 518.99,-491.8 1718.19,-491.8 1718.19,-461 518.99,-461"/>
<text text-anchor="start" x="525.99" y="-473.2" font-family="Arial" font-size="14.00">requires_intake </text>
<text text-anchor="start" x="625.6" y="-473.2" font-family="Arial" font-size="14.00" fill="#666666">[boolean]</text>
<polygon fill="none" stroke="black" points="518.99,-430.2 518.99,-461 1718.19,-461 1718.19,-430.2 518.99,-430.2"/>
<text text-anchor="start" x="525.99" y="-442.4" font-family="Arial" font-size="14.00">active </text>
<text text-anchor="start" x="566.45" y="-442.4" font-family="Arial" font-size="14.00" fill="#666666">[boolean]</text>
<polygon fill="none" stroke="black" points="518.99,-399.4 518.99,-430.2 1718.19,-430.2 1718.19,-399.4 518.99,-399.4"/>
<text text-anchor="start" x="525.99" y="-411.6" font-family="Arial" font-size="14.00">created_at </text>
<text text-anchor="start" x="596.04" y="-411.6" font-family="Arial" font-size="14.00" fill="#666666">[timestamp with time zone]</text>
<polygon fill="none" stroke="black" points="518.99,-368.6 518.99,-399.4 1718.19,-399.4 1718.19,-368.6 518.99,-368.6"/>
<text text-anchor="start" x="525.99" y="-380.8" font-family="Arial" font-size="14.00">updated_at </text>
<text text-anchor="start" x="599.95" y="-380.8" font-family="Arial" font-size="14.00" fill="#666666">[timestamp with time zone]</text>
<polygon fill="none" stroke="black" stroke-width="3" points="517.49,-367.1 517.49,-816.5 1719.69,-816.5 1719.69,-367.1 517.49,-367.1"/>
</g>
<!-- public.organizations -->
<g id="node5" class="node">
<title>public.organizations</title>
<polygon fill="#efefef" stroke="none" points="510.47,-197.2 510.47,-243.2 1144.71,-243.2 1144.71,-197.2 510.47,-197.2"/>
<polygon fill="none" stroke="black" points="510.47,-197.2 510.47,-243.2 1144.71,-243.2 1144.71,-197.2 510.47,-197.2"/>
<text text-anchor="start" x="692.12" y="-221" font-family="Arial Bold" font-size="18.00">public.organizations</text>
<text text-anchor="start" x="838.58" y="-221" font-family="Arial" font-size="14.00">    </text>
<text text-anchor="start" x="869.69" y="-221" font-family="Arial" font-size="14.00" fill="#666666">[BASE TABLE]</text>
<text text-anchor="start" x="517.47" y="-206.6" font-family="Arial" font-size="14.00" fill="#333333">Tenant root. Single row today; every domain table hangs off organization_id for future multi&#45;tenancy.</text>
<polygon fill="none" stroke="black" points="510.47,-166.4 510.47,-197.2 1144.71,-197.2 1144.71,-166.4 510.47,-166.4"/>
<text text-anchor="start" x="517.47" y="-178.6" font-family="Arial" font-size="14.00">id </text>
<text text-anchor="start" x="532.26" y="-178.6" font-family="Arial" font-size="14.00" fill="#666666">[uuid]</text>
<polygon fill="none" stroke="black" points="510.47,-135.6 510.47,-166.4 1144.71,-166.4 1144.71,-135.6 510.47,-135.6"/>
<text text-anchor="start" x="517.47" y="-147.8" font-family="Arial" font-size="14.00">name </text>
<text text-anchor="start" x="556.38" y="-147.8" font-family="Arial" font-size="14.00" fill="#666666">[text]</text>
<polygon fill="none" stroke="black" points="510.47,-104.8 510.47,-135.6 1144.71,-135.6 1144.71,-104.8 510.47,-104.8"/>
<text text-anchor="start" x="517.47" y="-117" font-family="Arial" font-size="14.00">timezone </text>
<text text-anchor="start" x="578.17" y="-117" font-family="Arial" font-size="14.00" fill="#666666">[text]</text>
<polygon fill="none" stroke="black" points="510.47,-74 510.47,-104.8 1144.71,-104.8 1144.71,-74 510.47,-74"/>
<text text-anchor="start" x="517.47" y="-86.2" font-family="Arial" font-size="14.00">branding </text>
<text text-anchor="start" x="575.85" y="-86.2" font-family="Arial" font-size="14.00" fill="#666666">[jsonb]</text>
<polygon fill="none" stroke="black" points="510.47,-43.2 510.47,-74 1144.71,-74 1144.71,-43.2 510.47,-43.2"/>
<text text-anchor="start" x="517.47" y="-55.4" font-family="Arial" font-size="14.00">created_at </text>
<text text-anchor="start" x="587.52" y="-55.4" font-family="Arial" font-size="14.00" fill="#666666">[timestamp with time zone]</text>
</g>
<!-- public.services&#45;&gt;public.organizations -->
<g id="edge4" class="edge">
<title>public.services:organization_id&#45;&gt;public.organizations:id</title>
<path fill="none" stroke="black" d="M507.83,-722.49C342.27,-712.26 399.05,-449.12 518.99,-322.4 614.73,-221.25 1048.61,-387.22 1144.71,-286.4 1176.79,-252.75 1192.2,-181.8 1145.71,-181.8"/>
<polygon fill="black" stroke="black" points="507.66,-722.49 517.52,-727.29 512.99,-722.65 517.32,-722.78 517.32,-722.78 517.32,-722.78 512.99,-722.65 517.79,-718.29 507.66,-722.49"/>
<text text-anchor="start" x="217.55" y="-732.8" font-family="Arial" font-size="10.00">FOREIGN KEY (organization_id) REFERENCES organizations(id)</text>
</g>
<!-- public.service_categories -->
<g id="node6" class="node">
<title>public.service_categories</title>
<polygon fill="#efefef" stroke="none" points="1249.14,-197.2 1249.14,-243.2 1570.04,-243.2 1570.04,-197.2 1249.14,-197.2"/>
<polygon fill="none" stroke="black" points="1249.14,-197.2 1249.14,-243.2 1570.04,-243.2 1570.04,-197.2 1249.14,-197.2"/>
<text text-anchor="start" x="1256.14" y="-221" font-family="Arial Bold" font-size="18.00">public.service_categories</text>
<text text-anchor="start" x="1438.55" y="-221" font-family="Arial" font-size="14.00">    </text>
<text text-anchor="start" x="1469.67" y="-221" font-family="Arial" font-size="14.00" fill="#666666">[BASE TABLE]</text>
<text text-anchor="start" x="1290.15" y="-206.6" font-family="Arial" font-size="14.00" fill="#333333">Menu grouping (Massage, Facials, ...).</text>
<polygon fill="none" stroke="black" points="1249.14,-166.4 1249.14,-197.2 1570.04,-197.2 1570.04,-166.4 1249.14,-166.4"/>
<text text-anchor="start" x="1256.14" y="-178.6" font-family="Arial" font-size="14.00">id </text>
<text text-anchor="start" x="1270.92" y="-178.6" font-family="Arial" font-size="14.00" fill="#666666">[uuid]</text>
<polygon fill="none" stroke="black" points="1249.14,-135.6 1249.14,-166.4 1570.04,-166.4 1570.04,-135.6 1249.14,-135.6"/>
<text text-anchor="start" x="1256.14" y="-147.8" font-family="Arial" font-size="14.00">organization_id </text>
<text text-anchor="start" x="1354.98" y="-147.8" font-family="Arial" font-size="14.00" fill="#666666">[uuid]</text>
<polygon fill="none" stroke="black" points="1249.14,-104.8 1249.14,-135.6 1570.04,-135.6 1570.04,-104.8 1249.14,-104.8"/>
<text text-anchor="start" x="1256.14" y="-117" font-family="Arial" font-size="14.00">name </text>
<text text-anchor="start" x="1295.05" y="-117" font-family="Arial" font-size="14.00" fill="#666666">[text]</text>
<polygon fill="none" stroke="black" points="1249.14,-74 1249.14,-104.8 1570.04,-104.8 1570.04,-74 1249.14,-74"/>
<text text-anchor="start" x="1256.14" y="-86.2" font-family="Arial" font-size="14.00">sort_order </text>
<text text-anchor="start" x="1323.83" y="-86.2" font-family="Arial" font-size="14.00" fill="#666666">[integer]</text>
<polygon fill="none" stroke="black" points="1249.14,-43.2 1249.14,-74 1570.04,-74 1570.04,-43.2 1249.14,-43.2"/>
<text text-anchor="start" x="1256.14" y="-55.4" font-family="Arial" font-size="14.00">created_at </text>
<text text-anchor="start" x="1326.18" y="-55.4" font-family="Arial" font-size="14.00" fill="#666666">[timestamp with time zone]</text>
</g>
<!-- public.services&#45;&gt;public.service_categories -->
<g id="edge5" class="edge">
<title>public.services:category_id&#45;&gt;public.service_categories:id</title>
<path fill="none" stroke="black" d="M1729.48,-691.66C1881.13,-681.35 1827.57,-440.18 1718.19,-322.4 1647.05,-245.8 1320.54,-362.76 1249.14,-286.4 1217.38,-252.44 1201.65,-181.8 1248.14,-181.8"/>
<polygon fill="black" stroke="black" points="1729.52,-691.66 1719.38,-687.49 1724.19,-691.83 1719.86,-691.98 1719.86,-691.98 1719.86,-691.98 1724.19,-691.83 1719.67,-696.49 1729.52,-691.66"/>
<text text-anchor="start" x="1726.19" y="-702" font-family="Arial" font-size="10.00">FOREIGN KEY (category_id) REFERENCES service_categories(id)</text>
</g>
<!-- public.service_resource_requirements -->
<g id="node2" class="node">
<title>public.service_resource_requirements</title>
<polygon fill="#efefef" stroke="none" points="43.2,-1079 43.2,-1125 627.98,-1125 627.98,-1079 43.2,-1079"/>
<polygon fill="none" stroke="black" points="43.2,-1079 43.2,-1125 627.98,-1125 627.98,-1079 43.2,-1079"/>
<text text-anchor="start" x="136.65" y="-1102.8" font-family="Arial Bold" font-size="18.00">public.service_resource_requirements</text>
<text text-anchor="start" x="410.04" y="-1102.8" font-family="Arial" font-size="14.00">    </text>
<text text-anchor="start" x="441.15" y="-1102.8" font-family="Arial" font-size="14.00" fill="#666666">[BASE TABLE]</text>
<text text-anchor="start" x="50.2" y="-1088.4" font-family="Arial" font-size="14.00" fill="#333333">Service &#45;&gt; room TYPE requirement; a concrete free room of the type is assigned at booking.</text>
<polygon fill="none" stroke="black" points="43.2,-1048.2 43.2,-1079 627.98,-1079 627.98,-1048.2 43.2,-1048.2"/>
<text text-anchor="start" x="50.2" y="-1060.4" font-family="Arial" font-size="14.00">service_id </text>
<text text-anchor="start" x="117.12" y="-1060.4" font-family="Arial" font-size="14.00" fill="#666666">[uuid]</text>
<polygon fill="none" stroke="black" points="43.2,-1017.4 43.2,-1048.2 627.98,-1048.2 627.98,-1017.4 43.2,-1017.4"/>
<text text-anchor="start" x="50.2" y="-1029.6" font-family="Arial" font-size="14.00">resource_type_id </text>
<text text-anchor="start" x="161.49" y="-1029.6" font-family="Arial" font-size="14.00" fill="#666666">[uuid]</text>
</g>
<!-- public.service_resource_requirements&#45;&gt;public.services -->
<g id="edge1" class="edge">
<title>public.service_resource_requirements:service_id&#45;&gt;public.services:id</title>
<path fill="none" stroke="black" d="M639.14,-1062.04C663.61,-1053.07 641.53,-1007.23 627.98,-974.2 601.5,-909.64 545.41,-925.78 518.99,-861.2 500.88,-816.94 470.17,-753.6 517.99,-753.6"/>
<polygon fill="black" stroke="black" points="639.2,-1062.03 628.63,-1059.1 633.92,-1062.84 629.64,-1063.5 629.64,-1063.5 629.64,-1063.5 633.92,-1062.84 629.99,-1068 639.2,-1062.03"/>
<text text-anchor="start" x="635.98" y="-1073.6" font-family="Arial" font-size="10.00">FOREIGN KEY (service_id) REFERENCES services(id) ON DELETE CASCADE</text>
</g>
<!-- public.service_staff -->
<g id="node3" class="node">
<title>public.service_staff</title>
<polygon fill="#efefef" stroke="none" points="732.61,-1125.2 732.61,-1171.2 1504.57,-1171.2 1504.57,-1125.2 732.61,-1125.2"/>
<polygon fill="none" stroke="black" points="732.61,-1125.2 732.61,-1171.2 1504.57,-1171.2 1504.57,-1125.2 732.61,-1125.2"/>
<text text-anchor="start" x="985.62" y="-1149" font-family="Arial Bold" font-size="18.00">public.service_staff</text>
<text text-anchor="start" x="1127.07" y="-1149" font-family="Arial" font-size="14.00">    </text>
<text text-anchor="start" x="1158.18" y="-1149" font-family="Arial" font-size="14.00" fill="#666666">[BASE TABLE]</text>
<text text-anchor="start" x="739.61" y="-1134.6" font-family="Arial" font-size="14.00" fill="#333333">Qualification: who may perform what, with optional per&#45;staff duration/price overrides that the slot and booking routes apply.</text>
<polygon fill="none" stroke="black" points="732.61,-1094.4 732.61,-1125.2 1504.57,-1125.2 1504.57,-1094.4 732.61,-1094.4"/>
<text text-anchor="start" x="739.61" y="-1106.6" font-family="Arial" font-size="14.00">service_id </text>
<text text-anchor="start" x="806.53" y="-1106.6" font-family="Arial" font-size="14.00" fill="#666666">[uuid]</text>
<polygon fill="none" stroke="black" points="732.61,-1063.6 732.61,-1094.4 1504.57,-1094.4 1504.57,-1063.6 732.61,-1063.6"/>
<text text-anchor="start" x="739.61" y="-1075.8" font-family="Arial" font-size="14.00">staff_id </text>
<text text-anchor="start" x="788.64" y="-1075.8" font-family="Arial" font-size="14.00" fill="#666666">[uuid]</text>
<polygon fill="none" stroke="black" points="732.61,-1032.8 732.61,-1063.6 1504.57,-1063.6 1504.57,-1032.8 732.61,-1032.8"/>
<text text-anchor="start" x="739.61" y="-1045" font-family="Arial" font-size="14.00">duration_override_min </text>
<text text-anchor="start" x="882.8" y="-1045" font-family="Arial" font-size="14.00" fill="#666666">[integer]</text>
<polygon fill="none" stroke="black" points="732.61,-1002 732.61,-1032.8 1504.57,-1032.8 1504.57,-1002 732.61,-1002"/>
<text text-anchor="start" x="739.61" y="-1014.2" font-family="Arial" font-size="14.00">price_override_cents </text>
<text text-anchor="start" x="873.46" y="-1014.2" font-family="Arial" font-size="14.00" fill="#666666">[integer]</text>
<polygon fill="none" stroke="black" points="732.61,-971.2 732.61,-1002 1504.57,-1002 1504.57,-971.2 732.61,-971.2"/>
<text text-anchor="start" x="739.61" y="-983.4" font-family="Arial" font-size="14.00">created_at </text>
<text text-anchor="start" x="809.66" y="-983.4" font-family="Arial" font-size="14.00" fill="#666666">[timestamp with time zone]</text>
</g>
<!-- public.service_staff&#45;&gt;public.services -->
<g id="edge2" class="edge">
<title>public.service_staff:service_id&#45;&gt;public.services:id</title>
<path fill="none" stroke="black" d="M1515.53,-1109.21C1594.43,-1099.18 1489.89,-962.82 1556.59,-897.2 1609.04,-845.6 1671.9,-918.4 1718.19,-861.2 1748.28,-824.03 1767.02,-753.6 1719.19,-753.6"/>
<polygon fill="black" stroke="black" points="1515.88,-1109.19 1505.64,-1105.29 1510.56,-1109.51 1506.24,-1109.76 1506.24,-1109.76 1506.24,-1109.76 1510.56,-1109.51 1506.17,-1114.27 1515.88,-1109.19"/>
<text text-anchor="start" x="1326.37" y="-1093.8" font-family="Arial" font-size="10.00">FOREIGN KEY (service_id) REFERENCES services(id) ON DELETE CASCADE</text>
</g>
<!-- public.appointment_services -->
<g id="node4" class="node">
<title>public.appointment_services</title>
<polygon fill="#efefef" stroke="none" points="1609.03,-1156 1609.03,-1202 2310.15,-1202 2310.15,-1156 1609.03,-1156"/>
<polygon fill="none" stroke="black" points="1609.03,-1156 1609.03,-1202 2310.15,-1202 2310.15,-1156 1609.03,-1156"/>
<text text-anchor="start" x="1794.12" y="-1179.8" font-family="Arial Bold" font-size="18.00">public.appointment_services</text>
<text text-anchor="start" x="2000.57" y="-1179.8" font-family="Arial" font-size="14.00">    </text>
<text text-anchor="start" x="2031.69" y="-1179.8" font-family="Arial" font-size="14.00" fill="#666666">[BASE TABLE]</text>
<text text-anchor="start" x="1616.03" y="-1165.4" font-family="Arial" font-size="14.00" fill="#333333">Line items with name/price/duration SNAPSHOTS taken at booking: catalog edits never rewrite booked history.</text>
<polygon fill="none" stroke="black" points="1609.03,-1125.2 1609.03,-1156 2310.15,-1156 2310.15,-1125.2 1609.03,-1125.2"/>
<text text-anchor="start" x="1616.03" y="-1137.4" font-family="Arial" font-size="14.00">id </text>
<text text-anchor="start" x="1630.82" y="-1137.4" font-family="Arial" font-size="14.00" fill="#666666">[uuid]</text>
<polygon fill="none" stroke="black" points="1609.03,-1094.4 1609.03,-1125.2 2310.15,-1125.2 2310.15,-1094.4 1609.03,-1094.4"/>
<text text-anchor="start" x="1616.03" y="-1106.6" font-family="Arial" font-size="14.00">appointment_id </text>
<text text-anchor="start" x="1715.66" y="-1106.6" font-family="Arial" font-size="14.00" fill="#666666">[uuid]</text>
<polygon fill="none" stroke="black" points="1609.03,-1063.6 1609.03,-1094.4 2310.15,-1094.4 2310.15,-1063.6 1609.03,-1063.6"/>
<text text-anchor="start" x="1616.03" y="-1075.8" font-family="Arial" font-size="14.00">service_id </text>
<text text-anchor="start" x="1682.95" y="-1075.8" font-family="Arial" font-size="14.00" fill="#666666">[uuid]</text>
<polygon fill="none" stroke="black" points="1609.03,-1032.8 1609.03,-1063.6 2310.15,-1063.6 2310.15,-1032.8 1609.03,-1032.8"/>
<text text-anchor="start" x="1616.03" y="-1045" font-family="Arial" font-size="14.00">name_snapshot </text>
<text text-anchor="start" x="1719.55" y="-1045" font-family="Arial" font-size="14.00" fill="#666666">[text]</text>
<polygon fill="none" stroke="black" points="1609.03,-1002 1609.03,-1032.8 2310.15,-1032.8 2310.15,-1002 1609.03,-1002"/>
<text text-anchor="start" x="1616.03" y="-1014.2" font-family="Arial" font-size="14.00">price_cents </text>
<text text-anchor="start" x="1691.51" y="-1014.2" font-family="Arial" font-size="14.00" fill="#666666">[integer]</text>
<polygon fill="none" stroke="black" points="1609.03,-971.2 1609.03,-1002 2310.15,-1002 2310.15,-971.2 1609.03,-971.2"/>
<text text-anchor="start" x="1616.03" y="-983.4" font-family="Arial" font-size="14.00">duration_min </text>
<text text-anchor="start" x="1700.86" y="-983.4" font-family="Arial" font-size="14.00" fill="#666666">[integer]</text>
<polygon fill="none" stroke="black" points="1609.03,-940.4 1609.03,-971.2 2310.15,-971.2 2310.15,-940.4 1609.03,-940.4"/>
<text text-anchor="start" x="1616.03" y="-952.6" font-family="Arial" font-size="14.00">sort_order </text>
<text text-anchor="start" x="1683.73" y="-952.6" font-family="Arial" font-size="14.00" fill="#666666">[integer]</text>
</g>
<!-- public.appointment_services&#45;&gt;public.services -->
<g id="edge3" class="edge">
<title>public.appointment_services:service_id&#45;&gt;public.services:id</title>
<path fill="none" stroke="black" d="M1597.83,-1078.31C1530.33,-1068.64 1563.63,-959.61 1609.03,-897.2 1639.08,-855.89 1688.06,-902.46 1718.19,-861.2 1746.4,-822.58 1767.02,-753.6 1719.19,-753.6"/>
<polygon fill="black" stroke="black" points="1597.72,-1078.3 1607.39,-1083.47 1603.04,-1078.66 1607.36,-1078.95 1607.36,-1078.95 1607.36,-1078.95 1603.04,-1078.66 1608,-1074.49 1597.72,-1078.3"/>
<text text-anchor="start" x="1418.66" y="-1063" font-family="Arial" font-size="10.00">FOREIGN KEY (service_id) REFERENCES services(id)</text>
</g>
</g>
</svg>
