<?xml version="1.0" encoding="UTF-8" standalone="no"?>
<!DOCTYPE svg PUBLIC "-//W3C//DTD SVG 1.1//EN"
 "http://www.w3.org/Graphics/SVG/1.1/DTD/svg11.dtd">
<!-- Generated by graphviz version 12.1.2 (20240928.0832)
 -->
<!-- Title: public.permissions Pages: 1 -->
<svg width="816pt" height="438pt"
 viewBox="0.00 0.00 816.21 438.00" xmlns="http://www.w3.org/2000/svg" xmlns:xlink="http://www.w3.org/1999/xlink">
<g id="graph0" class="graph" transform="scale(1 1) rotate(0) translate(4 434)">
<title>public.permissions</title>
<polygon fill="white" stroke="none" points="-4,4 -4,-434 812.21,-434 812.21,4 -4,4"/>
<!-- public.permissions -->
<g id="node1" class="node">
<title>public.permissions</title>
<polygon fill="#efefef" stroke="none" points="80.61,-107.8 80.61,-153.8 762.01,-153.8 762.01,-107.8 80.61,-107.8"/>
<polygon fill="none" stroke="black" points="80.61,-107.8 80.61,-153.8 762.01,-153.8 762.01,-107.8 80.61,-107.8"/>
<text text-anchor="start" x="291.32" y="-131.6" font-family="Arial Bold" font-size="18.00">public.permissions</text>
<text text-anchor="start" x="426.81" y="-131.6" font-family="Arial" font-size="14.00">    </text>
<text text-anchor="start" x="457.93" y="-131.6" font-family="Arial" font-size="14.00" fill="#666666">[BASE TABLE]</text>
<text text-anchor="start" x="87.61" y="-117.2" font-family="Arial" font-size="14.00" fill="#333333">Permission catalog: domain.action(.own|.any) keys. Seeded in migration 1; code references keys as strings.</text>
<polygon fill="none" stroke="black" points="80.61,-77 80.61,-107.8 762.01,-107.8 762.01,-77 80.61,-77"/>
<text text-anchor="start" x="87.61" y="-89.2" font-family="Arial" font-size="14.00">key </text>
<text text-anchor="start" x="113.28" y="-89.2" font-family="Arial" font-size="14.00" fill="#666666">[text]</text>
<polygon fill="none" stroke="black" points="80.61,-46.2 80.61,-77 762.01,-77 762.01,-46.2 80.61,-46.2"/>
<text text-anchor="start" x="87.61" y="-58.4" font-family="Arial" font-size="14.00">description </text>
<text text-anchor="start" x="159.2" y="-58.4" font-family="Arial" font-size="14.00" fill="#666666">[text]</text>
<polygon fill="none" stroke="black" stroke-width="3" points="79.11,-44.7 79.11,-155.3 763.51,-155.3 763.51,-44.7 79.11,-44.7"/>
</g>
<!-- public.role_permissions -->
<g id="node2" class="node">
<title>public.role_permissions</title>
<polygon fill="#efefef" stroke="none" points="100.7,-340.8 100.7,-386.8 741.92,-386.8 741.92,-340.8 100.7,-340.8"/>
<polygon fill="none" stroke="black" points="100.7,-340.8 100.7,-386.8 741.92,-386.8 741.92,-340.8 100.7,-340.8"/>
<text text-anchor="start" x="272.83" y="-364.6" font-family="Arial Bold" font-size="18.00">public.role_permissions</text>
<text text-anchor="start" x="445.3" y="-364.6" font-family="Arial" font-size="14.00">    </text>
<text text-anchor="start" x="476.42" y="-364.6" font-family="Arial" font-size="14.00" fill="#666666">[BASE TABLE]</text>
<text text-anchor="start" x="107.7" y="-350.2" font-family="Arial" font-size="14.00" fill="#333333">The permission matrix as data. Changing a row changes app behavior everywhere with zero deploys.</text>
<polygon fill="none" stroke="black" points="100.7,-310 100.7,-340.8 741.92,-340.8 741.92,-310 100.7,-310"/>
<text text-anchor="start" x="107.7" y="-322.2" font-family="Arial" font-size="14.00">role_id </text>
<text text-anchor="start" x="153.62" y="-322.2" font-family="Arial" font-size="14.00" fill="#666666">[uuid]</text>
<polygon fill="none" stroke="black" points="100.7,-279.2 100.7,-310 741.92,-310 741.92,-279.2 100.7,-279.2"/>
<text text-anchor="start" x="107.7" y="-291.4" font-family="Arial" font-size="14.00">permission_key </text>
<text text-anchor="start" x="208.85" y="-291.4" font-family="Arial" font-size="14.00" fill="#666666">[text]</text>
</g>
<!-- public.role_permissions&#45;&gt;public.permissions -->
<g id="edge1" class="edge">
<title>public.role_permissions:permission_key&#45;&gt;public.permissions:key</title>
<path fill="none" stroke="black" d="M421.71,-267.85C432.64,-131.96 666.94,-318.24 762.01,-200 791.98,-162.73 810.84,-92.4 763.01,-92.4"/>
<polygon fill="black" stroke="black" points="421.7,-267.87 416.83,-277.69 421.5,-273.2 421.34,-277.53 421.34,-277.53 421.34,-277.53 421.5,-273.2 425.82,-278.04 421.7,-267.87"/>
<text text-anchor="start" x="7" y="-288.2" font-family="Arial" font-size="10.00">FOREIGN KEY (permission_key) REFERENCES permissions(key) ON DELETE CASCADE</text>
</g>
</g>
</svg>
